M48
; DRILL file {KiCad 9.0.6} date 2026-07-09T03:35:57+0530
; FORMAT={-:-/ absolute / metric / decimal}
; #@! TF.CreationDate,2026-07-09T03:35:57+05:30
; #@! TF.GenerationSoftware,Kicad,Pcbnew,9.0.6
; #@! TF.FileFunction,Plated,1,2,PTH
FMAT,2
METRIC
; #@! TA.AperFunction,Plated,PTH,ComponentDrill
T1C0.450
; #@! TA.AperFunction,Plated,PTH,ComponentDrill
T2C0.500
; #@! TA.AperFunction,Plated,PTH,ComponentDrill
T3C0.800
; #@! TA.AperFunction,Plated,PTH,ComponentDrill
T4C0.840
; #@! TA.AperFunction,Plated,PTH,ComponentDrill
T5C1.000
; #@! TA.AperFunction,Plated,PTH,ComponentDrill
T6C1.100
; #@! TA.AperFunction,Plated,PTH,ComponentDrill
T7C1.100
; #@! TA.AperFunction,Plated,PTH,ComponentDrill
T8C1.900
; #@! TA.AperFunction,Plated,PTH,ComponentDrill
T9C2.200
; #@! TA.AperFunction,Plated,PTH,ComponentDrill
T10C3.300
%
G90
G05
T3
X114.783Y-100.71
X114.783Y-103.25
X114.783Y-105.79
X114.783Y-108.33
X114.783Y-110.87
X114.783Y-113.41
X114.783Y-115.95
X114.783Y-118.49
X132.817Y-100.71
X132.817Y-103.25
X132.817Y-105.79
X132.817Y-108.33
X132.817Y-110.87
X132.817Y-113.41
X132.817Y-115.95
X132.817Y-118.49
T4
X114.58Y-75.7
X114.58Y-78.24
X114.58Y-80.78
X114.58Y-83.32
X114.58Y-85.86
X114.58Y-88.4
X114.58Y-90.94
X114.58Y-93.48
X129.82Y-75.7
X129.82Y-78.24
X129.82Y-80.78
X129.82Y-83.32
X129.82Y-85.86
X129.82Y-88.4
X129.82Y-90.94
X129.82Y-93.48
T5
X180.468Y-95.95
X180.468Y-98.45
T6
X137.15Y-113.55
X137.15Y-118.05
X143.65Y-113.55
X143.65Y-118.05
X149.95Y-113.75
X149.95Y-118.25
X156.45Y-113.75
X156.45Y-118.25
X162.75Y-113.95
X162.75Y-118.45
X169.25Y-113.95
X169.25Y-118.45
X179.4Y-85.6
X184.4Y-80.6
X184.4Y-90.6
T7
X149.702Y-77.6
X152.243Y-77.6
X154.782Y-77.6
X157.322Y-77.6
T8
X176.052Y-104.6
X176.052Y-109.4
X176.052Y-114.2
T9
X110.5Y-76.75
X110.6Y-119.2
X184.6Y-119.0
X185.0Y-76.75
T10
X138.362Y-77.6
X138.362Y-106.0
X168.662Y-77.6
X168.662Y-106.0
T1
G00X183.9Y-86.025
M15
G01X183.9Y-85.175
M16
G05
T2
G00X179.8Y-80.6
M15
G01X179.0Y-80.6
M16
G05
G00X179.8Y-83.1
M15
G01X179.0Y-83.1
M16
G05
G00X179.8Y-88.1
M15
G01X179.0Y-88.1
M16
G05
G00X179.8Y-90.6
M15
G01X179.0Y-90.6
M16
G05
M30
