%TF.GenerationSoftware,KiCad,Pcbnew,9.0.6*%
%TF.CreationDate,2026-07-09T03:29:59+05:30*%
%TF.ProjectId,Pocket_P,506f636b-6574-45f5-902e-6b696361645f,rev?*%
%TF.SameCoordinates,Original*%
%TF.FileFunction,Copper,L1,Top*%
%TF.FilePolarity,Positive*%
%FSLAX46Y46*%
G04 Gerber Fmt 4.6, Leading zero omitted, Abs format (unit mm)*
G04 Created by KiCad (PCBNEW 9.0.6) date 2026-07-09 03:29:59*
%MOMM*%
%LPD*%
G01*
G04 APERTURE LIST*
G04 Aperture macros list*
%AMRoundRect*
0 Rectangle with rounded corners*
0 $1 Rounding radius*
0 $2 $3 $4 $5 $6 $7 $8 $9 X,Y pos of 4 corners*
0 Add a 4 corners polygon primitive as box body*
4,1,4,$2,$3,$4,$5,$6,$7,$8,$9,$2,$3,0*
0 Add four circle primitives for the rounded corners*
1,1,$1+$1,$2,$3*
1,1,$1+$1,$4,$5*
1,1,$1+$1,$6,$7*
1,1,$1+$1,$8,$9*
0 Add four rect primitives between the rounded corners*
20,1,$1+$1,$2,$3,$4,$5,0*
20,1,$1+$1,$4,$5,$6,$7,0*
20,1,$1+$1,$6,$7,$8,$9,0*
20,1,$1+$1,$8,$9,$2,$3,0*%
G04 Aperture macros list end*
%TA.AperFunction,ComponentPad*%
%ADD10C,2.000000*%
%TD*%
%TA.AperFunction,ComponentPad*%
%ADD11C,3.800000*%
%TD*%
%TA.AperFunction,ComponentPad*%
%ADD12RoundRect,0.250000X-0.750000X0.600000X-0.750000X-0.600000X0.750000X-0.600000X0.750000X0.600000X0*%
%TD*%
%TA.AperFunction,ComponentPad*%
%ADD13O,2.000000X1.700000*%
%TD*%
%TA.AperFunction,ComponentPad*%
%ADD14C,1.700000*%
%TD*%
%TA.AperFunction,ComponentPad*%
%ADD15O,1.000000X2.000000*%
%TD*%
%TA.AperFunction,ComponentPad*%
%ADD16O,2.000000X1.000000*%
%TD*%
%TA.AperFunction,ComponentPad*%
%ADD17C,1.348000*%
%TD*%
%TA.AperFunction,ComponentPad*%
%ADD18R,1.308000X1.308000*%
%TD*%
%TA.AperFunction,ComponentPad*%
%ADD19C,1.308000*%
%TD*%
%TA.AperFunction,ComponentPad*%
%ADD20C,2.900000*%
%TD*%
%TA.AperFunction,ComponentPad*%
%ADD21C,4.000000*%
%TD*%
%TA.AperFunction,ComponentPad*%
%ADD22C,1.650000*%
%TD*%
%TA.AperFunction,Conductor*%
%ADD23C,0.200000*%
%TD*%
G04 APERTURE END LIST*
D10*
%TO.P,SW1,1,1*%
%TO.N,GND*%
X137150000Y-113550000D03*
X143650000Y-113550000D03*
%TO.P,SW1,2,2*%
%TO.N,SW1*%
X137150000Y-118050000D03*
X143650000Y-118050000D03*
%TD*%
D11*
%TO.P,,1*%
%TO.N,N/C*%
X185000000Y-76750000D03*
%TD*%
D12*
%TO.P,J2,1,Pin_1*%
%TO.N,+5V*%
X180467500Y-95950000D03*
D13*
%TO.P,J2,2,Pin_2*%
%TO.N,GND*%
X180467500Y-98450000D03*
%TD*%
D14*
%TO.P,J1,*%
%TO.N,*%
X184400000Y-90600000D03*
X184400000Y-80600000D03*
X179400000Y-85600000D03*
D15*
%TO.P,J1,1,Pin_1*%
%TO.N,GND*%
X183900000Y-85600000D03*
D16*
%TO.P,J1,2,Pin_2*%
%TO.N,DAC_L*%
X179400000Y-90600000D03*
%TO.P,J1,3,Pin_3*%
%TO.N,DAC_R*%
X179400000Y-88100000D03*
%TO.P,J1,4,Pin_4*%
%TO.N,GND*%
X179400000Y-83100000D03*
%TO.P,J1,5,Pin_5*%
X179400000Y-80600000D03*
%TD*%
D10*
%TO.P,SW2,1,1*%
%TO.N,GND*%
X149950000Y-113750000D03*
X156450000Y-113750000D03*
%TO.P,SW2,2,2*%
%TO.N,SW2*%
X149950000Y-118250000D03*
X156450000Y-118250000D03*
%TD*%
D11*
%TO.P,,1*%
%TO.N,N/C*%
X110500000Y-76750000D03*
%TD*%
D17*
%TO.P,U1,0,GPIO0*%
%TO.N,unconnected-(U1-GPIO0-Pad0)*%
X129820000Y-93480000D03*
%TO.P,U1,1,GPIO1*%
%TO.N,SW1*%
X129820000Y-90940000D03*
%TO.P,U1,2,GPIO2*%
%TO.N,SW2*%
X129820000Y-88400000D03*
%TO.P,U1,3,GPIO3*%
%TO.N,SW3*%
X129820000Y-85860000D03*
%TO.P,U1,3.3,3V3*%
%TO.N,+3V3*%
X129820000Y-80780000D03*
%TO.P,U1,4,GPIO4*%
%TO.N,DF_RX*%
X129820000Y-83320000D03*
%TO.P,U1,5,GPIO5*%
%TO.N,DF_TX*%
X114580000Y-75700000D03*
%TO.P,U1,5V,5V*%
%TO.N,+5V*%
X129820000Y-75700000D03*
%TO.P,U1,6,GPIO6*%
%TO.N,DF_BUSY*%
X114580000Y-78240000D03*
%TO.P,U1,7,GPIO7*%
%TO.N,unconnected-(U1-GPIO7-Pad7)*%
X114580000Y-80780000D03*
%TO.P,U1,8,GPIO8*%
%TO.N,D_SDA*%
X114580000Y-83320000D03*
%TO.P,U1,9,GPIO9*%
%TO.N,D_SCL*%
X114580000Y-85860000D03*
%TO.P,U1,10,GPIO10*%
%TO.N,unconnected-(U1-GPIO10-Pad10)*%
X114580000Y-88400000D03*
%TO.P,U1,20,GPIO20*%
%TO.N,unconnected-(U1-GPIO20-Pad20)*%
X114580000Y-90940000D03*
%TO.P,U1,21,GPIO21*%
%TO.N,unconnected-(U1-GPIO21-Pad21)*%
X114580000Y-93480000D03*
%TO.P,U1,G,GND*%
%TO.N,GND*%
X129820000Y-78240000D03*
%TD*%
D11*
%TO.P,,1*%
%TO.N,N/C*%
X110600000Y-119200000D03*
%TD*%
D18*
%TO.P,U3,1,VCC*%
%TO.N,+5V*%
X114783000Y-100710000D03*
D19*
%TO.P,U3,2,RX*%
%TO.N,DF_RX*%
X114783000Y-103250000D03*
%TO.P,U3,3,TX*%
%TO.N,DF_TX*%
X114783000Y-105790000D03*
%TO.P,U3,4,DAC_R*%
%TO.N,DAC_R*%
X114783000Y-108330000D03*
%TO.P,U3,5,DAC_L*%
%TO.N,DAC_L*%
X114783000Y-110870000D03*
%TO.P,U3,6,SPK1*%
%TO.N,unconnected-(U3-SPK1-Pad6)*%
X114783000Y-113410000D03*
%TO.P,U3,7,GND*%
%TO.N,GND*%
X114783000Y-115950000D03*
%TO.P,U3,8,SPK2*%
%TO.N,unconnected-(U3-SPK2-Pad8)*%
X114783000Y-118490000D03*
%TO.P,U3,9,IO1*%
%TO.N,unconnected-(U3-IO1-Pad9)*%
X132817000Y-118490000D03*
%TO.P,U3,10,GND*%
%TO.N,GND*%
X132817000Y-115950000D03*
%TO.P,U3,11,IO2*%
%TO.N,unconnected-(U3-IO2-Pad11)*%
X132817000Y-113410000D03*
%TO.P,U3,12,ADKEY1*%
%TO.N,unconnected-(U3-ADKEY1-Pad12)*%
X132817000Y-110870000D03*
%TO.P,U3,13,ADKEY2*%
%TO.N,unconnected-(U3-ADKEY2-Pad13)*%
X132817000Y-108330000D03*
%TO.P,U3,14,USB+*%
%TO.N,unconnected-(U3-USB+-Pad14)*%
X132817000Y-105790000D03*
%TO.P,U3,15,USB-*%
%TO.N,unconnected-(U3-USB--Pad15)*%
X132817000Y-103250000D03*
%TO.P,U3,16,BUSY*%
%TO.N,DF_BUSY*%
X132817000Y-100710000D03*
%TD*%
D10*
%TO.P,SW3,1,1*%
%TO.N,GND*%
X162750000Y-113950000D03*
X169250000Y-113950000D03*
%TO.P,SW3,2,2*%
%TO.N,SW3*%
X162750000Y-118450000D03*
X169250000Y-118450000D03*
%TD*%
D11*
%TO.P,REF\u002A\u002A,1*%
%TO.N,N/C*%
X184600000Y-119000000D03*
%TD*%
D20*
%TO.P,SW4,1,A*%
%TO.N,+5V*%
X176052500Y-114200001D03*
%TO.P,SW4,2,B*%
X176052500Y-109400000D03*
%TO.P,SW4,3,C*%
%TO.N,unconnected-(SW4-C-Pad3)*%
X176052500Y-104599999D03*
%TD*%
D21*
%TO.P,U2,*%
%TO.N,*%
X138362500Y-77600000D03*
X138362500Y-106000000D03*
X168662500Y-77600000D03*
X168662500Y-106000000D03*
D22*
%TO.P,U2,1,GND*%
%TO.N,GND*%
X149702500Y-77600000D03*
%TO.P,U2,2,VCC*%
%TO.N,+5V*%
X152242500Y-77600000D03*
%TO.P,U2,3,SCL*%
%TO.N,D_SCL*%
X154782500Y-77600000D03*
%TO.P,U2,4,SDA*%
%TO.N,D_SDA*%
X157322500Y-77600000D03*
%TD*%
D23*
%TO.N,+5V*%
X149941500Y-75299000D02*
X130221000Y-75299000D01*
X180317500Y-95800000D02*
X180467500Y-95950000D01*
X180467500Y-95950000D02*
X160117500Y-75600000D01*
X152242500Y-77600000D02*
X149941500Y-75299000D01*
X113204000Y-99731000D02*
X113204000Y-78237141D01*
X114183000Y-100710000D02*
X113204000Y-99731000D01*
X176200000Y-95800000D02*
X180317500Y-95800000D01*
X175305000Y-110147500D02*
X173600000Y-110147500D01*
X114766141Y-76675000D02*
X128845000Y-76675000D01*
X113204000Y-78237141D02*
X114766141Y-76675000D01*
X160117500Y-75600000D02*
X154242500Y-75600000D01*
X130221000Y-75299000D02*
X129820000Y-75700000D01*
X176052500Y-109400000D02*
X175305000Y-110147500D01*
X176052500Y-114200001D02*
X176052500Y-109400000D01*
X173600000Y-98400000D02*
X176200000Y-95800000D01*
X173600000Y-110147500D02*
X173600000Y-98400000D01*
X128845000Y-76675000D02*
X129820000Y-75700000D01*
X154242500Y-75600000D02*
X152242500Y-77600000D01*
X114783000Y-100710000D02*
X114183000Y-100710000D01*
%TO.N,SW1*%
X137150000Y-118050000D02*
X135000000Y-115900000D01*
X132740000Y-90940000D02*
X129820000Y-90940000D01*
X137150000Y-118050000D02*
X143650000Y-118050000D01*
X135000000Y-115900000D02*
X135000000Y-93200000D01*
X135000000Y-93200000D02*
X132740000Y-90940000D01*
%TO.N,SW2*%
X149950000Y-118250000D02*
X156450000Y-118250000D01*
X147600000Y-115900000D02*
X149950000Y-118250000D01*
X129820000Y-88400000D02*
X135200000Y-88400000D01*
X135200000Y-88400000D02*
X147600000Y-100800000D01*
X147600000Y-100800000D02*
X147600000Y-115900000D01*
%TO.N,SW3*%
X161449000Y-101249000D02*
X145800000Y-85600000D01*
X161449000Y-117149000D02*
X161449000Y-101249000D01*
X162750000Y-118450000D02*
X169250000Y-118450000D01*
X131140000Y-85860000D02*
X129820000Y-85860000D01*
X162750000Y-118450000D02*
X161449000Y-117149000D01*
X131400000Y-85600000D02*
X131140000Y-85860000D01*
X145800000Y-85600000D02*
X131400000Y-85600000D01*
%TO.N,DF_BUSY*%
X113605000Y-96805000D02*
X118000000Y-101200000D01*
X114580000Y-78240000D02*
X113605000Y-79215000D01*
X132327000Y-101200000D02*
X132817000Y-100710000D01*
X118000000Y-101200000D02*
X132327000Y-101200000D01*
X113605000Y-79215000D02*
X113605000Y-96805000D01*
%TO.N,D_SCL*%
X116145000Y-84295000D02*
X114580000Y-85860000D01*
X154782500Y-77600000D02*
X148087500Y-84295000D01*
X148087500Y-84295000D02*
X116145000Y-84295000D01*
%TD*%
%TA.AperFunction,Conductor*%
%TO.N,GND*%
G36*
X183372358Y-74770185D02*
G01*
X183418113Y-74822989D01*
X183428057Y-74892147D01*
X183399032Y-74955703D01*
X183393000Y-74962181D01*
X183207265Y-75147915D01*
X183039161Y-75358712D01*
X182895714Y-75587005D01*
X182778734Y-75829917D01*
X182689687Y-76084397D01*
X182689684Y-76084405D01*
X182629688Y-76347268D01*
X182629686Y-76347280D01*
X182599500Y-76615186D01*
X182599500Y-76884813D01*
X182629686Y-77152719D01*
X182629687Y-77152728D01*
X182629688Y-77152732D01*
X182631320Y-77159881D01*
X182689684Y-77415594D01*
X182689687Y-77415602D01*
X182778734Y-77670082D01*
X182895714Y-77912994D01*
X182895716Y-77912997D01*
X183039162Y-78141289D01*
X183161302Y-78294448D01*
X183203101Y-78346863D01*
X183207266Y-78352085D01*
X183397915Y-78542734D01*
X183608711Y-78710838D01*
X183837003Y-78854284D01*
X183837005Y-78854285D01*
X183839684Y-78855575D01*
X184079921Y-78971267D01*
X184173664Y-79004069D01*
X184229428Y-79023582D01*
X184286204Y-79064303D01*
X184311951Y-79129256D01*
X184298495Y-79197818D01*
X184250107Y-79248220D01*
X184207871Y-79263096D01*
X184083760Y-79282753D01*
X183881585Y-79348444D01*
X183692179Y-79444951D01*
X183520213Y-79569890D01*
X183369890Y-79720213D01*
X183244951Y-79892179D01*
X183148444Y-80081585D01*
X183082753Y-80283760D01*
X183049500Y-80493713D01*
X183049500Y-80706286D01*
X183082753Y-80916239D01*
X183148444Y-81118414D01*
X183244951Y-81307820D01*
X183369890Y-81479786D01*
X183520213Y-81630109D01*
X183692179Y-81755048D01*
X183692181Y-81755049D01*
X183692184Y-81755051D01*
X183881588Y-81851557D01*
X184083757Y-81917246D01*
X184293713Y-81950500D01*
X184293714Y-81950500D01*
X184506286Y-81950500D01*
X184506287Y-81950500D01*
X184716243Y-81917246D01*
X184918412Y-81851557D01*
X185107816Y-81755051D01*
X185129789Y-81739086D01*
X185279786Y-81630109D01*
X185279788Y-81630106D01*
X185279792Y-81630104D01*
X185430104Y-81479792D01*
X185430106Y-81479788D01*
X185430109Y-81479786D01*
X185555048Y-81307820D01*
X185555047Y-81307820D01*
X185555051Y-81307816D01*
X185651557Y-81118412D01*
X185717246Y-80916243D01*
X185750500Y-80706287D01*
X185750500Y-80493713D01*
X185717246Y-80283757D01*
X185651557Y-80081588D01*
X185555051Y-79892184D01*
X185555049Y-79892181D01*
X185555048Y-79892179D01*
X185430109Y-79720213D01*
X185279786Y-79569890D01*
X185107819Y-79444951D01*
X185107818Y-79444950D01*
X185107816Y-79444949D01*
X184990130Y-79384985D01*
X184939334Y-79337010D01*
X184922539Y-79269189D01*
X184945076Y-79203054D01*
X184999792Y-79159603D01*
X185046425Y-79150500D01*
X185134812Y-79150500D01*
X185134812Y-79150499D01*
X185402732Y-79120312D01*
X185665591Y-79060316D01*
X185920079Y-78971267D01*
X186162997Y-78854284D01*
X186391289Y-78710838D01*
X186602085Y-78542734D01*
X186792734Y-78352085D01*
X186796899Y-78346863D01*
X186858553Y-78269551D01*
X186915741Y-78229410D01*
X186985552Y-78226560D01*
X187045822Y-78261905D01*
X187077416Y-78324224D01*
X187079500Y-78346863D01*
X187079500Y-118088098D01*
X187059815Y-118155137D01*
X187007011Y-118200892D01*
X186937853Y-118210836D01*
X186874297Y-118181811D01*
X186838459Y-118129053D01*
X186827814Y-118098631D01*
X186821267Y-118079921D01*
X186704284Y-117837003D01*
X186560838Y-117608711D01*
X186392734Y-117397915D01*
X186202085Y-117207266D01*
X185991289Y-117039162D01*
X185828038Y-116936584D01*
X185762994Y-116895714D01*
X185520082Y-116778734D01*
X185265602Y-116689687D01*
X185265594Y-116689684D01*
X185068446Y-116644687D01*
X185002732Y-116629688D01*
X185002728Y-116629687D01*
X185002719Y-116629686D01*
X184734813Y-116599500D01*
X184734809Y-116599500D01*
X184465191Y-116599500D01*
X184465186Y-116599500D01*
X184197280Y-116629686D01*
X184197268Y-116629688D01*
X183934405Y-116689684D01*
X183934397Y-116689687D01*
X183679917Y-116778734D01*
X183437005Y-116895714D01*
X183208712Y-117039161D01*
X182997915Y-117207265D01*
X182807265Y-117397915D01*
X182639161Y-117608712D01*
X182495714Y-117837005D01*
X182378734Y-118079917D01*
X182289687Y-118334397D01*
X182289684Y-118334405D01*
X182229688Y-118597268D01*
X182229686Y-118597280D01*
X182199500Y-118865186D01*
X182199500Y-119134813D01*
X182229686Y-119402719D01*
X182229687Y-119402728D01*
X182229688Y-119402732D01*
X182235344Y-119427511D01*
X182289684Y-119665594D01*
X182289687Y-119665602D01*
X182378734Y-119920082D01*
X182495714Y-120162994D01*
X182495716Y-120162997D01*
X182639162Y-120391289D01*
X182807266Y-120602085D01*
X182997915Y-120792734D01*
X183208711Y-120960838D01*
X183437003Y-121104284D01*
X183679921Y-121221267D01*
X183750411Y-121245932D01*
X183786209Y-121258459D01*
X183842985Y-121299180D01*
X183868732Y-121364133D01*
X183855276Y-121432695D01*
X183806888Y-121483098D01*
X183745254Y-121499500D01*
X111882726Y-121499500D01*
X111815687Y-121479815D01*
X111769932Y-121427011D01*
X111759988Y-121357853D01*
X111789013Y-121294297D01*
X111816754Y-121270506D01*
X111824385Y-121265711D01*
X111991289Y-121160838D01*
X112202085Y-120992734D01*
X112392734Y-120802085D01*
X112560838Y-120591289D01*
X112704284Y-120362997D01*
X112821267Y-120120079D01*
X112910316Y-119865591D01*
X112970312Y-119602732D01*
X113000500Y-119334809D01*
X113000500Y-119065191D01*
X112970312Y-118797268D01*
X112910316Y-118534409D01*
X112821267Y-118279921D01*
X112704284Y-118037003D01*
X112560838Y-117808711D01*
X112392734Y-117597915D01*
X112202085Y-117407266D01*
X111991289Y-117239162D01*
X111833613Y-117140087D01*
X111762994Y-117095714D01*
X111520082Y-116978734D01*
X111265602Y-116889687D01*
X111265594Y-116889684D01*
X111068446Y-116844687D01*
X111002732Y-116829688D01*
X111002728Y-116829687D01*
X111002719Y-116829686D01*
X110734813Y-116799500D01*
X110734809Y-116799500D01*
X110465191Y-116799500D01*
X110465186Y-116799500D01*
X110197280Y-116829686D01*
X110197268Y-116829688D01*
X109934405Y-116889684D01*
X109934397Y-116889687D01*
X109679917Y-116978734D01*
X109437005Y-117095714D01*
X109208712Y-117239161D01*
X108997915Y-117407265D01*
X108807265Y-117597915D01*
X108721447Y-117705528D01*
X108664258Y-117745668D01*
X108594447Y-117748518D01*
X108534177Y-117713172D01*
X108502584Y-117650853D01*
X108500500Y-117628215D01*
X108500500Y-78444681D01*
X108520185Y-78377642D01*
X108572989Y-78331887D01*
X108642147Y-78321943D01*
X108705703Y-78350968D01*
X108712181Y-78357000D01*
X108897915Y-78542734D01*
X109108711Y-78710838D01*
X109337003Y-78854284D01*
X109337005Y-78854285D01*
X109339684Y-78855575D01*
X109579921Y-78971267D01*
X109729429Y-79023582D01*
X109834397Y-79060312D01*
X109834405Y-79060315D01*
X109834408Y-79060315D01*
X109834409Y-79060316D01*
X110097268Y-79120312D01*
X110365187Y-79150499D01*
X110365188Y-79150500D01*
X110365191Y-79150500D01*
X110634812Y-79150500D01*
X110634812Y-79150499D01*
X110902732Y-79120312D01*
X111165591Y-79060316D01*
X111420079Y-78971267D01*
X111662997Y-78854284D01*
X111891289Y-78710838D01*
X112102085Y-78542734D01*
X112292734Y-78352085D01*
X112296899Y-78346863D01*
X112382552Y-78239457D01*
X112406168Y-78222880D01*
X112427976Y-78203980D01*
X112434415Y-78203053D01*
X112439740Y-78199316D01*
X112468569Y-78198139D01*
X112497133Y-78194029D01*
X112503051Y-78196731D01*
X112509551Y-78196466D01*
X112534436Y-78211060D01*
X112560692Y-78223047D01*
X112564210Y-78228520D01*
X112569821Y-78231811D01*
X112582869Y-78257548D01*
X112598472Y-78281822D01*
X112599777Y-78290900D01*
X112601415Y-78294130D01*
X112603499Y-78316756D01*
X112603500Y-78326187D01*
X112603499Y-78326189D01*
X112603500Y-78326200D01*
X112603500Y-99644330D01*
X112603499Y-99644348D01*
X112603499Y-99810054D01*
X112603498Y-99810054D01*
X112644424Y-99962789D01*
X112644425Y-99962790D01*
X112670601Y-100008127D01*
X112670603Y-100008129D01*
X112723479Y-100099714D01*
X112723481Y-100099717D01*
X112842349Y-100218585D01*
X112842355Y-100218590D01*
X113592181Y-100968416D01*
X113625666Y-101029739D01*
X113628500Y-101056097D01*
X113628500Y-101411869D01*
X113628501Y-101411876D01*
X113634908Y-101471483D01*
X113685202Y-101606328D01*
X113685206Y-101606335D01*
X113771452Y-101721544D01*
X113771455Y-101721547D01*
X113886664Y-101807793D01*
X113886671Y-101807797D01*
X114021517Y-101858091D01*
X114021516Y-101858091D01*
X114028444Y-101858835D01*
X114081127Y-101864500D01*
X114575053Y-101864499D01*
X114642090Y-101884183D01*
X114687845Y-101936987D01*
X114697789Y-102006146D01*
X114668764Y-102069702D01*
X114609986Y-102107476D01*
X114594450Y-102110972D01*
X114512650Y-102123928D01*
X114512649Y-102123928D01*
X114339828Y-102180081D01*
X114339825Y-102180083D01*
X114177909Y-102262583D01*
X114094030Y-102323525D01*
X114030894Y-102369397D01*
X114030892Y-102369399D01*
X114030891Y-102369399D01*
X113902399Y-102497891D01*
X113902399Y-102497892D01*
X113902397Y-102497894D01*
X113856525Y-102561030D01*
X113795583Y-102644909D01*
X113713083Y-102806825D01*
X113713081Y-102806828D01*
X113656928Y-102979649D01*
X113656928Y-102979652D01*
X113628500Y-103159139D01*
X113628500Y-103340860D01*
X113656928Y-103520347D01*
X113656928Y-103520350D01*
X113713081Y-103693171D01*
X113713083Y-103693174D01*
X113795583Y-103855090D01*
X113902397Y-104002106D01*
X114030894Y-104130603D01*
X114177910Y-104237417D01*
X114339826Y-104319917D01*
X114339828Y-104319918D01*
X114501029Y-104372294D01*
X114512654Y-104376072D01*
X114648114Y-104397527D01*
X114711249Y-104427456D01*
X114748180Y-104486768D01*
X114747182Y-104556630D01*
X114708572Y-104614863D01*
X114648114Y-104642473D01*
X114512652Y-104663928D01*
X114512649Y-104663928D01*
X114339828Y-104720081D01*
X114339825Y-104720083D01*
X114177909Y-104802583D01*
X114094030Y-104863525D01*
X114030894Y-104909397D01*
X114030892Y-104909399D01*
X114030891Y-104909399D01*
X113902399Y-105037891D01*
X113902399Y-105037892D01*
X113902397Y-105037894D01*
X113856525Y-105101030D01*
X113795583Y-105184909D01*
X113713083Y-105346825D01*
X113713081Y-105346828D01*
X113656928Y-105519649D01*
X113656928Y-105519652D01*
X113628500Y-105699139D01*
X113628500Y-105880860D01*
X113656928Y-106060347D01*
X113656928Y-106060350D01*
X113713081Y-106233171D01*
X113713083Y-106233174D01*
X113795583Y-106395090D01*
X113902397Y-106542106D01*
X114030894Y-106670603D01*
X114177910Y-106777417D01*
X114339826Y-106859917D01*
X114339828Y-106859918D01*
X114501029Y-106912294D01*
X114512654Y-106916072D01*
X114648114Y-106937527D01*
X114711249Y-106967456D01*
X114748180Y-107026768D01*
X114747182Y-107096630D01*
X114708572Y-107154863D01*
X114648114Y-107182473D01*
X114512652Y-107203928D01*
X114512649Y-107203928D01*
X114339828Y-107260081D01*
X114339825Y-107260083D01*
X114177909Y-107342583D01*
X114094030Y-107403525D01*
X114030894Y-107449397D01*
X114030892Y-107449399D01*
X114030891Y-107449399D01*
X113902399Y-107577891D01*
X113902399Y-107577892D01*
X113902397Y-107577894D01*
X113856525Y-107641030D01*
X113795583Y-107724909D01*
X113713083Y-107886825D01*
X113713081Y-107886828D01*
X113656928Y-108059649D01*
X113656928Y-108059652D01*
X113628500Y-108239139D01*
X113628500Y-108420860D01*
X113656928Y-108600347D01*
X113656928Y-108600350D01*
X113713081Y-108773171D01*
X113713083Y-108773174D01*
X113795583Y-108935090D01*
X113902397Y-109082106D01*
X114030894Y-109210603D01*
X114177910Y-109317417D01*
X114339826Y-109399917D01*
X114339828Y-109399918D01*
X114501029Y-109452294D01*
X114512654Y-109456072D01*
X114648114Y-109477527D01*
X114711249Y-109507456D01*
X114748180Y-109566768D01*
X114747182Y-109636630D01*
X114708572Y-109694863D01*
X114648114Y-109722473D01*
X114512652Y-109743928D01*
X114512649Y-109743928D01*
X114339828Y-109800081D01*
X114339825Y-109800083D01*
X114177909Y-109882583D01*
X114094030Y-109943525D01*
X114030894Y-109989397D01*
X114030892Y-109989399D01*
X114030891Y-109989399D01*
X113902399Y-110117891D01*
X113902399Y-110117892D01*
X113902397Y-110117894D01*
X113856525Y-110181030D01*
X113795583Y-110264909D01*
X113713083Y-110426825D01*
X113713081Y-110426828D01*
X113656928Y-110599649D01*
X113656928Y-110599652D01*
X113628500Y-110779139D01*
X113628500Y-110960860D01*
X113656928Y-111140347D01*
X113656928Y-111140350D01*
X113713081Y-111313171D01*
X113713083Y-111313174D01*
X113795583Y-111475090D01*
X113902397Y-111622106D01*
X114030894Y-111750603D01*
X114177910Y-111857417D01*
X114339826Y-111939917D01*
X114339828Y-111939918D01*
X114501029Y-111992294D01*
X114512654Y-111996072D01*
X114648114Y-112017527D01*
X114711249Y-112047456D01*
X114748180Y-112106768D01*
X114747182Y-112176630D01*
X114708572Y-112234863D01*
X114648114Y-112262473D01*
X114512652Y-112283928D01*
X114512649Y-112283928D01*
X114339828Y-112340081D01*
X114339825Y-112340083D01*
X114177909Y-112422583D01*
X114138953Y-112450887D01*
X114030894Y-112529397D01*
X114030892Y-112529399D01*
X114030891Y-112529399D01*
X113902399Y-112657891D01*
X113902399Y-112657892D01*
X113902397Y-112657894D01*
X113856525Y-112721030D01*
X113795583Y-112804909D01*
X113713083Y-112966825D01*
X113713081Y-112966828D01*
X113656928Y-113139649D01*
X113656928Y-113139652D01*
X113628500Y-113319139D01*
X113628500Y-113500860D01*
X113656928Y-113680347D01*
X113656928Y-113680350D01*
X113713081Y-113853171D01*
X113713083Y-113853174D01*
X113795583Y-114015090D01*
X113902397Y-114162106D01*
X114030894Y-114290603D01*
X114177910Y-114397417D01*
X114339826Y-114479917D01*
X114339828Y-114479918D01*
X114401635Y-114500000D01*
X114512654Y-114536072D01*
X114649712Y-114557780D01*
X114712847Y-114587709D01*
X114749778Y-114647021D01*
X114748780Y-114716883D01*
X114710170Y-114775116D01*
X114649712Y-114802726D01*
X114512774Y-114824415D01*
X114340015Y-114880548D01*
X114178170Y-114963012D01*
X114178161Y-114963018D01*
X114161603Y-114975048D01*
X114161602Y-114975049D01*
X114736554Y-115550000D01*
X114730339Y-115550000D01*
X114628606Y-115577259D01*
X114537394Y-115629920D01*
X114462920Y-115704394D01*
X114410259Y-115795606D01*
X114383000Y-115897339D01*
X114383000Y-115903553D01*
X113808049Y-115328602D01*
X113808048Y-115328603D01*
X113796018Y-115345161D01*
X113796012Y-115345170D01*
X113713548Y-115507015D01*
X113657415Y-115679774D01*
X113629000Y-115859178D01*
X113629000Y-116040821D01*
X113657415Y-116220225D01*
X113713548Y-116392984D01*
X113796012Y-116554830D01*
X113796014Y-116554834D01*
X113808048Y-116571395D01*
X113808049Y-116571396D01*
X114383000Y-115996445D01*
X114383000Y-116002661D01*
X114410259Y-116104394D01*
X114462920Y-116195606D01*
X114537394Y-116270080D01*
X114628606Y-116322741D01*
X114730339Y-116350000D01*
X114736554Y-116350000D01*
X114161602Y-116924949D01*
X114161603Y-116924950D01*
X114178165Y-116936985D01*
X114178179Y-116936993D01*
X114340012Y-117019450D01*
X114512774Y-117075584D01*
X114512775Y-117075585D01*
X114649711Y-117097273D01*
X114712846Y-117127202D01*
X114749778Y-117186513D01*
X114748780Y-117256376D01*
X114710171Y-117314609D01*
X114649713Y-117342219D01*
X114512650Y-117363928D01*
X114512649Y-117363928D01*
X114339828Y-117420081D01*
X114339825Y-117420083D01*
X114177909Y-117502583D01*
X114094030Y-117563525D01*
X114030894Y-117609397D01*
X114030892Y-117609399D01*
X114030891Y-117609399D01*
X113902399Y-117737891D01*
X113902399Y-117737892D01*
X113902397Y-117737894D01*
X113877303Y-117772433D01*
X113795583Y-117884909D01*
X113713083Y-118046825D01*
X113713081Y-118046828D01*
X113656928Y-118219649D01*
X113656928Y-118219652D01*
X113628500Y-118399139D01*
X113628500Y-118580860D01*
X113656928Y-118760347D01*
X113656928Y-118760350D01*
X113713081Y-118933171D01*
X113713083Y-118933174D01*
X113795583Y-119095090D01*
X113902397Y-119242106D01*
X114030894Y-119370603D01*
X114177910Y-119477417D01*
X114339826Y-119559917D01*
X114339828Y-119559918D01*
X114501029Y-119612294D01*
X114512654Y-119616072D01*
X114692139Y-119644500D01*
X114692140Y-119644500D01*
X114873860Y-119644500D01*
X114873861Y-119644500D01*
X115053346Y-119616072D01*
X115053349Y-119616071D01*
X115053350Y-119616071D01*
X115226171Y-119559918D01*
X115226171Y-119559917D01*
X115226174Y-119559917D01*
X115388090Y-119477417D01*
X115535106Y-119370603D01*
X115663603Y-119242106D01*
X115770417Y-119095090D01*
X115852917Y-118933174D01*
X115887741Y-118825996D01*
X115909071Y-118760350D01*
X115909071Y-118760349D01*
X115909072Y-118760346D01*
X115937500Y-118580861D01*
X115937500Y-118399139D01*
X115909072Y-118219654D01*
X115909071Y-118219650D01*
X115909071Y-118219649D01*
X115852918Y-118046828D01*
X115852916Y-118046825D01*
X115847913Y-118037005D01*
X115770417Y-117884910D01*
X115663603Y-117737894D01*
X115535106Y-117609397D01*
X115388090Y-117502583D01*
X115226174Y-117420083D01*
X115226171Y-117420081D01*
X115053349Y-117363928D01*
X114916286Y-117342219D01*
X114853152Y-117312289D01*
X114816221Y-117252978D01*
X114817219Y-117183115D01*
X114855829Y-117124883D01*
X114916288Y-117097273D01*
X115053224Y-117075585D01*
X115053225Y-117075584D01*
X115225984Y-117019451D01*
X115387831Y-116936986D01*
X115404396Y-116924949D01*
X114829447Y-116350000D01*
X114835661Y-116350000D01*
X114937394Y-116322741D01*
X115028606Y-116270080D01*
X115103080Y-116195606D01*
X115155741Y-116104394D01*
X115183000Y-116002661D01*
X115183000Y-115996446D01*
X115757949Y-116571395D01*
X115769986Y-116554831D01*
X115852451Y-116392984D01*
X115908584Y-116220225D01*
X115937000Y-116040821D01*
X115937000Y-115859178D01*
X115908584Y-115679774D01*
X115852450Y-115507012D01*
X115769993Y-115345179D01*
X115769985Y-115345165D01*
X115757950Y-115328603D01*
X115757949Y-115328602D01*
X115183000Y-115903552D01*
X115183000Y-115897339D01*
X115155741Y-115795606D01*
X115103080Y-115704394D01*
X115028606Y-115629920D01*
X114937394Y-115577259D01*
X114835661Y-115550000D01*
X114829447Y-115550000D01*
X115404396Y-114975049D01*
X115404395Y-114975048D01*
X115387834Y-114963014D01*
X115387830Y-114963012D01*
X115225984Y-114880548D01*
X115053225Y-114824415D01*
X114916287Y-114802726D01*
X114853152Y-114772797D01*
X114816221Y-114713485D01*
X114817219Y-114643622D01*
X114855829Y-114585390D01*
X114916286Y-114557780D01*
X115053346Y-114536072D01*
X115053349Y-114536071D01*
X115053350Y-114536071D01*
X115226171Y-114479918D01*
X115226171Y-114479917D01*
X115226174Y-114479917D01*
X115388090Y-114397417D01*
X115535106Y-114290603D01*
X115663603Y-114162106D01*
X115770417Y-114015090D01*
X115852917Y-113853174D01*
X115886440Y-113750000D01*
X115909071Y-113680350D01*
X115909071Y-113680349D01*
X115909072Y-113680346D01*
X115937500Y-113500861D01*
X115937500Y-113319139D01*
X115909072Y-113139654D01*
X115909071Y-113139650D01*
X115909071Y-113139649D01*
X115852918Y-112966828D01*
X115852916Y-112966825D01*
X115824569Y-112911189D01*
X115770417Y-112804910D01*
X115663603Y-112657894D01*
X115535106Y-112529397D01*
X115388090Y-112422583D01*
X115226174Y-112340083D01*
X115226171Y-112340081D01*
X115053349Y-112283928D01*
X114947017Y-112267087D01*
X114917884Y-112262472D01*
X114854750Y-112232544D01*
X114817819Y-112173232D01*
X114818817Y-112103370D01*
X114857427Y-112045137D01*
X114917884Y-112017527D01*
X115053346Y-111996072D01*
X115053349Y-111996071D01*
X115053350Y-111996071D01*
X115226171Y-111939918D01*
X115226171Y-111939917D01*
X115226174Y-111939917D01*
X115388090Y-111857417D01*
X115535106Y-111750603D01*
X115663603Y-111622106D01*
X115770417Y-111475090D01*
X115852917Y-111313174D01*
X115865449Y-111274605D01*
X115909071Y-111140350D01*
X115909071Y-111140349D01*
X115909072Y-111140346D01*
X115937500Y-110960861D01*
X115937500Y-110779139D01*
X115909072Y-110599654D01*
X115909071Y-110599650D01*
X115909071Y-110599649D01*
X115852918Y-110426828D01*
X115852916Y-110426825D01*
X115828693Y-110379283D01*
X115770417Y-110264910D01*
X115663603Y-110117894D01*
X115535106Y-109989397D01*
X115388090Y-109882583D01*
X115226174Y-109800083D01*
X115226171Y-109800081D01*
X115053349Y-109743928D01*
X114957008Y-109728669D01*
X114917884Y-109722472D01*
X114854750Y-109692544D01*
X114817819Y-109633232D01*
X114818817Y-109563370D01*
X114857427Y-109505137D01*
X114917884Y-109477527D01*
X115053346Y-109456072D01*
X115053349Y-109456071D01*
X115053350Y-109456071D01*
X115226171Y-109399918D01*
X115226171Y-109399917D01*
X115226174Y-109399917D01*
X115388090Y-109317417D01*
X115535106Y-109210603D01*
X115663603Y-109082106D01*
X115770417Y-108935090D01*
X115852917Y-108773174D01*
X115909072Y-108600346D01*
X115937500Y-108420861D01*
X115937500Y-108239139D01*
X115909072Y-108059654D01*
X115909071Y-108059650D01*
X115909071Y-108059649D01*
X115852918Y-107886828D01*
X115852916Y-107886825D01*
X115770416Y-107724909D01*
X115663603Y-107577894D01*
X115535106Y-107449397D01*
X115388090Y-107342583D01*
X115226174Y-107260083D01*
X115226171Y-107260081D01*
X115053349Y-107203928D01*
X114957008Y-107188669D01*
X114917884Y-107182472D01*
X114854750Y-107152544D01*
X114817819Y-107093232D01*
X114818817Y-107023370D01*
X114857427Y-106965137D01*
X114917884Y-106937527D01*
X115053346Y-106916072D01*
X115053349Y-106916071D01*
X115053350Y-106916071D01*
X115226171Y-106859918D01*
X115226171Y-106859917D01*
X115226174Y-106859917D01*
X115388090Y-106777417D01*
X115535106Y-106670603D01*
X115663603Y-106542106D01*
X115770417Y-106395090D01*
X115852917Y-106233174D01*
X115906062Y-106069610D01*
X115909071Y-106060350D01*
X115909071Y-106060349D01*
X115909072Y-106060346D01*
X115937500Y-105880861D01*
X115937500Y-105699139D01*
X115909072Y-105519654D01*
X115909071Y-105519650D01*
X115909071Y-105519649D01*
X115852918Y-105346828D01*
X115852916Y-105346825D01*
X115832463Y-105306682D01*
X115770417Y-105184910D01*
X115663603Y-105037894D01*
X115535106Y-104909397D01*
X115388090Y-104802583D01*
X115226174Y-104720083D01*
X115226171Y-104720081D01*
X115053349Y-104663928D01*
X114957008Y-104648669D01*
X114917884Y-104642472D01*
X114854750Y-104612544D01*
X114817819Y-104553232D01*
X114818817Y-104483370D01*
X114857427Y-104425137D01*
X114917884Y-104397527D01*
X115053346Y-104376072D01*
X115053349Y-104376071D01*
X115053350Y-104376071D01*
X115226171Y-104319918D01*
X115226171Y-104319917D01*
X115226174Y-104319917D01*
X115388090Y-104237417D01*
X115535106Y-104130603D01*
X115663603Y-104002106D01*
X115770417Y-103855090D01*
X115852917Y-103693174D01*
X115855183Y-103686199D01*
X115909071Y-103520350D01*
X115909071Y-103520349D01*
X115909072Y-103520346D01*
X115937500Y-103340861D01*
X115937500Y-103159139D01*
X115909072Y-102979654D01*
X115909071Y-102979650D01*
X115909071Y-102979649D01*
X115852918Y-102806828D01*
X115852916Y-102806825D01*
X115823480Y-102749052D01*
X115770417Y-102644910D01*
X115663603Y-102497894D01*
X115535106Y-102369397D01*
X115388090Y-102262583D01*
X115226174Y-102180083D01*
X115226171Y-102180081D01*
X115053348Y-102123928D01*
X114971548Y-102110972D01*
X114908413Y-102081043D01*
X114871482Y-102021731D01*
X114872480Y-101951868D01*
X114911090Y-101893636D01*
X114975054Y-101865522D01*
X114990940Y-101864499D01*
X115484872Y-101864499D01*
X115544483Y-101858091D01*
X115679331Y-101807796D01*
X115794546Y-101721546D01*
X115880796Y-101606331D01*
X115931091Y-101471483D01*
X115937500Y-101411873D01*
X115937499Y-100286095D01*
X115957184Y-100219057D01*
X116009987Y-100173302D01*
X116079146Y-100163358D01*
X116142702Y-100192383D01*
X116149178Y-100198413D01*
X117631284Y-101680520D01*
X117631286Y-101680521D01*
X117631290Y-101680524D01*
X117768209Y-101759573D01*
X117768216Y-101759577D01*
X117920943Y-101800501D01*
X117920945Y-101800501D01*
X118086654Y-101800501D01*
X118086670Y-101800500D01*
X132247939Y-101800500D01*
X132247943Y-101800501D01*
X132406057Y-101800501D01*
X132407171Y-101800202D01*
X132416351Y-101800186D01*
X132429026Y-101803883D01*
X132454887Y-101806254D01*
X132546654Y-101836072D01*
X132682114Y-101857527D01*
X132745249Y-101887456D01*
X132782180Y-101946768D01*
X132781182Y-102016630D01*
X132742572Y-102074863D01*
X132682114Y-102102473D01*
X132546652Y-102123928D01*
X132546649Y-102123928D01*
X132373828Y-102180081D01*
X132373825Y-102180083D01*
X132211909Y-102262583D01*
X132128030Y-102323525D01*
X132064894Y-102369397D01*
X132064892Y-102369399D01*
X132064891Y-102369399D01*
X131936399Y-102497891D01*
X131936399Y-102497892D01*
X131936397Y-102497894D01*
X131890525Y-102561030D01*
X131829583Y-102644909D01*
X131747083Y-102806825D01*
X131747081Y-102806828D01*
X131690928Y-102979649D01*
X131690928Y-102979652D01*
X131662500Y-103159139D01*
X131662500Y-103340860D01*
X131690928Y-103520347D01*
X131690928Y-103520350D01*
X131747081Y-103693171D01*
X131747083Y-103693174D01*
X131829583Y-103855090D01*
X131936397Y-104002106D01*
X132064894Y-104130603D01*
X132211910Y-104237417D01*
X132373826Y-104319917D01*
X132373828Y-104319918D01*
X132535029Y-104372294D01*
X132546654Y-104376072D01*
X132682114Y-104397527D01*
X132745249Y-104427456D01*
X132782180Y-104486768D01*
X132781182Y-104556630D01*
X132742572Y-104614863D01*
X132682114Y-104642473D01*
X132546652Y-104663928D01*
X132546649Y-104663928D01*
X132373828Y-104720081D01*
X132373825Y-104720083D01*
X132211909Y-104802583D01*
X132128030Y-104863525D01*
X132064894Y-104909397D01*
X132064892Y-104909399D01*
X132064891Y-104909399D01*
X131936399Y-105037891D01*
X131936399Y-105037892D01*
X131936397Y-105037894D01*
X131890525Y-105101030D01*
X131829583Y-105184909D01*
X131747083Y-105346825D01*
X131747081Y-105346828D01*
X131690928Y-105519649D01*
X131690928Y-105519652D01*
X131662500Y-105699139D01*
X131662500Y-105880860D01*
X131690928Y-106060347D01*
X131690928Y-106060350D01*
X131747081Y-106233171D01*
X131747083Y-106233174D01*
X131829583Y-106395090D01*
X131936397Y-106542106D01*
X132064894Y-106670603D01*
X132211910Y-106777417D01*
X132373826Y-106859917D01*
X132373828Y-106859918D01*
X132535029Y-106912294D01*
X132546654Y-106916072D01*
X132682114Y-106937527D01*
X132745249Y-106967456D01*
X132782180Y-107026768D01*
X132781182Y-107096630D01*
X132742572Y-107154863D01*
X132682114Y-107182473D01*
X132546652Y-107203928D01*
X132546649Y-107203928D01*
X132373828Y-107260081D01*
X132373825Y-107260083D01*
X132211909Y-107342583D01*
X132128030Y-107403525D01*
X132064894Y-107449397D01*
X132064892Y-107449399D01*
X132064891Y-107449399D01*
X131936399Y-107577891D01*
X131936399Y-107577892D01*
X131936397Y-107577894D01*
X131890525Y-107641030D01*
X131829583Y-107724909D01*
X131747083Y-107886825D01*
X131747081Y-107886828D01*
X131690928Y-108059649D01*
X131690928Y-108059652D01*
X131662500Y-108239139D01*
X131662500Y-108420860D01*
X131690928Y-108600347D01*
X131690928Y-108600350D01*
X131747081Y-108773171D01*
X131747083Y-108773174D01*
X131829583Y-108935090D01*
X131936397Y-109082106D01*
X132064894Y-109210603D01*
X132211910Y-109317417D01*
X132373826Y-109399917D01*
X132373828Y-109399918D01*
X132535029Y-109452294D01*
X132546654Y-109456072D01*
X132682114Y-109477527D01*
X132745249Y-109507456D01*
X132782180Y-109566768D01*
X132781182Y-109636630D01*
X132742572Y-109694863D01*
X132682114Y-109722473D01*
X132546652Y-109743928D01*
X132546649Y-109743928D01*
X132373828Y-109800081D01*
X132373825Y-109800083D01*
X132211909Y-109882583D01*
X132128030Y-109943525D01*
X132064894Y-109989397D01*
X132064892Y-109989399D01*
X132064891Y-109989399D01*
X131936399Y-110117891D01*
X131936399Y-110117892D01*
X131936397Y-110117894D01*
X131890525Y-110181030D01*
X131829583Y-110264909D01*
X131747083Y-110426825D01*
X131747081Y-110426828D01*
X131690928Y-110599649D01*
X131690928Y-110599652D01*
X131662500Y-110779139D01*
X131662500Y-110960860D01*
X131690928Y-111140347D01*
X131690928Y-111140350D01*
X131747081Y-111313171D01*
X131747083Y-111313174D01*
X131829583Y-111475090D01*
X131936397Y-111622106D01*
X132064894Y-111750603D01*
X132211910Y-111857417D01*
X132373826Y-111939917D01*
X132373828Y-111939918D01*
X132535029Y-111992294D01*
X132546654Y-111996072D01*
X132682114Y-112017527D01*
X132745249Y-112047456D01*
X132782180Y-112106768D01*
X132781182Y-112176630D01*
X132742572Y-112234863D01*
X132682114Y-112262473D01*
X132546652Y-112283928D01*
X132546649Y-112283928D01*
X132373828Y-112340081D01*
X132373825Y-112340083D01*
X132211909Y-112422583D01*
X132172953Y-112450887D01*
X132064894Y-112529397D01*
X132064892Y-112529399D01*
X132064891Y-112529399D01*
X131936399Y-112657891D01*
X131936399Y-112657892D01*
X131936397Y-112657894D01*
X131890525Y-112721030D01*
X131829583Y-112804909D01*
X131747083Y-112966825D01*
X131747081Y-112966828D01*
X131690928Y-113139649D01*
X131690928Y-113139652D01*
X131662500Y-113319139D01*
X131662500Y-113500860D01*
X131690928Y-113680347D01*
X131690928Y-113680350D01*
X131747081Y-113853171D01*
X131747083Y-113853174D01*
X131829583Y-114015090D01*
X131936397Y-114162106D01*
X132064894Y-114290603D01*
X132211910Y-114397417D01*
X132373826Y-114479917D01*
X132373828Y-114479918D01*
X132435635Y-114500000D01*
X132546654Y-114536072D01*
X132683712Y-114557780D01*
X132746847Y-114587709D01*
X132783778Y-114647021D01*
X132782780Y-114716883D01*
X132744170Y-114775116D01*
X132683712Y-114802726D01*
X132546774Y-114824415D01*
X132374015Y-114880548D01*
X132212170Y-114963012D01*
X132212161Y-114963018D01*
X132195603Y-114975048D01*
X132195602Y-114975049D01*
X132770554Y-115550000D01*
X132764339Y-115550000D01*
X132662606Y-115577259D01*
X132571394Y-115629920D01*
X132496920Y-115704394D01*
X132444259Y-115795606D01*
X132417000Y-115897339D01*
X132417000Y-115903553D01*
X131842049Y-115328602D01*
X131842048Y-115328603D01*
X131830018Y-115345161D01*
X131830012Y-115345170D01*
X131747548Y-115507015D01*
X131691415Y-115679774D01*
X131663000Y-115859178D01*
X131663000Y-116040821D01*
X131691415Y-116220225D01*
X131747548Y-116392984D01*
X131830012Y-116554830D01*
X131830014Y-116554834D01*
X131842048Y-116571395D01*
X131842049Y-116571396D01*
X132417000Y-115996445D01*
X132417000Y-116002661D01*
X132444259Y-116104394D01*
X132496920Y-116195606D01*
X132571394Y-116270080D01*
X132662606Y-116322741D01*
X132764339Y-116350000D01*
X132770554Y-116350000D01*
X132195602Y-116924949D01*
X132195603Y-116924950D01*
X132212165Y-116936985D01*
X132212179Y-116936993D01*
X132374012Y-117019450D01*
X132546774Y-117075584D01*
X132546775Y-117075585D01*
X132683711Y-117097273D01*
X132746846Y-117127202D01*
X132783778Y-117186513D01*
X132782780Y-117256376D01*
X132744171Y-117314609D01*
X132683713Y-117342219D01*
X132546650Y-117363928D01*
X132546649Y-117363928D01*
X132373828Y-117420081D01*
X132373825Y-117420083D01*
X132211909Y-117502583D01*
X132128030Y-117563525D01*
X132064894Y-117609397D01*
X132064892Y-117609399D01*
X132064891Y-117609399D01*
X131936399Y-117737891D01*
X131936399Y-117737892D01*
X131936397Y-117737894D01*
X131911303Y-117772433D01*
X131829583Y-117884909D01*
X131747083Y-118046825D01*
X131747081Y-118046828D01*
X131690928Y-118219649D01*
X131690928Y-118219652D01*
X131662500Y-118399139D01*
X131662500Y-118580860D01*
X131690928Y-118760347D01*
X131690928Y-118760350D01*
X131747081Y-118933171D01*
X131747083Y-118933174D01*
X131829583Y-119095090D01*
X131936397Y-119242106D01*
X132064894Y-119370603D01*
X132211910Y-119477417D01*
X132373826Y-119559917D01*
X132373828Y-119559918D01*
X132535029Y-119612294D01*
X132546654Y-119616072D01*
X132726139Y-119644500D01*
X132726140Y-119644500D01*
X132907860Y-119644500D01*
X132907861Y-119644500D01*
X133087346Y-119616072D01*
X133087349Y-119616071D01*
X133087350Y-119616071D01*
X133260171Y-119559918D01*
X133260171Y-119559917D01*
X133260174Y-119559917D01*
X133422090Y-119477417D01*
X133569106Y-119370603D01*
X133697603Y-119242106D01*
X133804417Y-119095090D01*
X133886917Y-118933174D01*
X133921741Y-118825996D01*
X133943071Y-118760350D01*
X133943071Y-118760349D01*
X133943072Y-118760346D01*
X133971500Y-118580861D01*
X133971500Y-118399139D01*
X133943072Y-118219654D01*
X133943071Y-118219650D01*
X133943071Y-118219649D01*
X133886918Y-118046828D01*
X133886916Y-118046825D01*
X133881913Y-118037005D01*
X133804417Y-117884910D01*
X133697603Y-117737894D01*
X133569106Y-117609397D01*
X133422090Y-117502583D01*
X133260174Y-117420083D01*
X133260171Y-117420081D01*
X133087349Y-117363928D01*
X132950286Y-117342219D01*
X132887152Y-117312289D01*
X132850221Y-117252978D01*
X132851219Y-117183115D01*
X132889829Y-117124883D01*
X132950288Y-117097273D01*
X133087224Y-117075585D01*
X133087225Y-117075584D01*
X133259984Y-117019451D01*
X133421831Y-116936986D01*
X133438396Y-116924949D01*
X132863447Y-116350000D01*
X132869661Y-116350000D01*
X132971394Y-116322741D01*
X133062606Y-116270080D01*
X133137080Y-116195606D01*
X133189741Y-116104394D01*
X133217000Y-116002661D01*
X133217000Y-115996446D01*
X133791949Y-116571395D01*
X133803986Y-116554831D01*
X133886451Y-116392984D01*
X133942584Y-116220225D01*
X133971000Y-116040821D01*
X133971000Y-115859178D01*
X133942584Y-115679774D01*
X133886450Y-115507012D01*
X133803993Y-115345179D01*
X133803985Y-115345165D01*
X133791950Y-115328603D01*
X133791949Y-115328602D01*
X133217000Y-115903552D01*
X133217000Y-115897339D01*
X133189741Y-115795606D01*
X133137080Y-115704394D01*
X133062606Y-115629920D01*
X132971394Y-115577259D01*
X132869661Y-115550000D01*
X132863447Y-115550000D01*
X133438396Y-114975049D01*
X133438395Y-114975048D01*
X133421834Y-114963014D01*
X133421830Y-114963012D01*
X133259984Y-114880548D01*
X133087225Y-114824415D01*
X132950287Y-114802726D01*
X132887152Y-114772797D01*
X132850221Y-114713485D01*
X132851219Y-114643622D01*
X132889829Y-114585390D01*
X132950286Y-114557780D01*
X133087346Y-114536072D01*
X133087349Y-114536071D01*
X133087350Y-114536071D01*
X133260171Y-114479918D01*
X133260171Y-114479917D01*
X133260174Y-114479917D01*
X133422090Y-114397417D01*
X133569106Y-114290603D01*
X133697603Y-114162106D01*
X133804417Y-114015090D01*
X133886917Y-113853174D01*
X133920440Y-113750000D01*
X133943071Y-113680350D01*
X133943071Y-113680349D01*
X133943072Y-113680346D01*
X133971500Y-113500861D01*
X133971500Y-113319139D01*
X133943072Y-113139654D01*
X133943071Y-113139650D01*
X133943071Y-113139649D01*
X133886918Y-112966828D01*
X133886916Y-112966825D01*
X133858569Y-112911189D01*
X133804417Y-112804910D01*
X133697603Y-112657894D01*
X133569106Y-112529397D01*
X133422090Y-112422583D01*
X133260174Y-112340083D01*
X133260171Y-112340081D01*
X133087349Y-112283928D01*
X132981017Y-112267087D01*
X132951884Y-112262472D01*
X132888750Y-112232544D01*
X132851819Y-112173232D01*
X132852817Y-112103370D01*
X132891427Y-112045137D01*
X132951884Y-112017527D01*
X133087346Y-111996072D01*
X133087349Y-111996071D01*
X133087350Y-111996071D01*
X133260171Y-111939918D01*
X133260171Y-111939917D01*
X133260174Y-111939917D01*
X133422090Y-111857417D01*
X133569106Y-111750603D01*
X133697603Y-111622106D01*
X133804417Y-111475090D01*
X133886917Y-111313174D01*
X133899449Y-111274605D01*
X133943071Y-111140350D01*
X133943071Y-111140349D01*
X133943072Y-111140346D01*
X133971500Y-110960861D01*
X133971500Y-110779139D01*
X133943072Y-110599654D01*
X133943071Y-110599650D01*
X133943071Y-110599649D01*
X133886918Y-110426828D01*
X133886916Y-110426825D01*
X133862693Y-110379283D01*
X133804417Y-110264910D01*
X133697603Y-110117894D01*
X133569106Y-109989397D01*
X133422090Y-109882583D01*
X133260174Y-109800083D01*
X133260171Y-109800081D01*
X133087349Y-109743928D01*
X132991008Y-109728669D01*
X132951884Y-109722472D01*
X132888750Y-109692544D01*
X132851819Y-109633232D01*
X132852817Y-109563370D01*
X132891427Y-109505137D01*
X132951884Y-109477527D01*
X133087346Y-109456072D01*
X133087349Y-109456071D01*
X133087350Y-109456071D01*
X133260171Y-109399918D01*
X133260171Y-109399917D01*
X133260174Y-109399917D01*
X133422090Y-109317417D01*
X133569106Y-109210603D01*
X133697603Y-109082106D01*
X133804417Y-108935090D01*
X133886917Y-108773174D01*
X133943072Y-108600346D01*
X133971500Y-108420861D01*
X133971500Y-108239139D01*
X133943072Y-108059654D01*
X133943071Y-108059650D01*
X133943071Y-108059649D01*
X133886918Y-107886828D01*
X133886916Y-107886825D01*
X133804416Y-107724909D01*
X133697603Y-107577894D01*
X133569106Y-107449397D01*
X133422090Y-107342583D01*
X133260174Y-107260083D01*
X133260171Y-107260081D01*
X133087349Y-107203928D01*
X132991008Y-107188669D01*
X132951884Y-107182472D01*
X132888750Y-107152544D01*
X132851819Y-107093232D01*
X132852817Y-107023370D01*
X132891427Y-106965137D01*
X132951884Y-106937527D01*
X133087346Y-106916072D01*
X133087349Y-106916071D01*
X133087350Y-106916071D01*
X133260171Y-106859918D01*
X133260171Y-106859917D01*
X133260174Y-106859917D01*
X133422090Y-106777417D01*
X133569106Y-106670603D01*
X133697603Y-106542106D01*
X133804417Y-106395090D01*
X133886917Y-106233174D01*
X133940062Y-106069610D01*
X133943071Y-106060350D01*
X133943071Y-106060349D01*
X133943072Y-106060346D01*
X133971500Y-105880861D01*
X133971500Y-105699139D01*
X133943072Y-105519654D01*
X133943071Y-105519650D01*
X133943071Y-105519649D01*
X133886918Y-105346828D01*
X133886916Y-105346825D01*
X133866463Y-105306682D01*
X133804417Y-105184910D01*
X133697603Y-105037894D01*
X133569106Y-104909397D01*
X133422090Y-104802583D01*
X133260174Y-104720083D01*
X133260171Y-104720081D01*
X133087349Y-104663928D01*
X132991008Y-104648669D01*
X132951884Y-104642472D01*
X132888750Y-104612544D01*
X132851819Y-104553232D01*
X132852817Y-104483370D01*
X132891427Y-104425137D01*
X132951884Y-104397527D01*
X133087346Y-104376072D01*
X133087349Y-104376071D01*
X133087350Y-104376071D01*
X133260171Y-104319918D01*
X133260171Y-104319917D01*
X133260174Y-104319917D01*
X133422090Y-104237417D01*
X133569106Y-104130603D01*
X133697603Y-104002106D01*
X133804417Y-103855090D01*
X133886917Y-103693174D01*
X133889183Y-103686199D01*
X133943071Y-103520350D01*
X133943071Y-103520349D01*
X133943072Y-103520346D01*
X133971500Y-103340861D01*
X133971500Y-103159139D01*
X133943072Y-102979654D01*
X133943071Y-102979650D01*
X133943071Y-102979649D01*
X133886918Y-102806828D01*
X133886916Y-102806825D01*
X133857480Y-102749052D01*
X133804417Y-102644910D01*
X133697603Y-102497894D01*
X133569106Y-102369397D01*
X133422090Y-102262583D01*
X133260174Y-102180083D01*
X133260171Y-102180081D01*
X133087349Y-102123928D01*
X132991008Y-102108669D01*
X132951884Y-102102472D01*
X132888750Y-102072544D01*
X132851819Y-102013232D01*
X132852817Y-101943370D01*
X132891427Y-101885137D01*
X132951884Y-101857527D01*
X133087346Y-101836072D01*
X133087349Y-101836071D01*
X133087350Y-101836071D01*
X133260171Y-101779918D01*
X133260171Y-101779917D01*
X133260174Y-101779917D01*
X133422090Y-101697417D01*
X133569106Y-101590603D01*
X133697603Y-101462106D01*
X133804417Y-101315090D01*
X133886917Y-101153174D01*
X133920851Y-101048735D01*
X133943071Y-100980350D01*
X133943071Y-100980349D01*
X133943072Y-100980346D01*
X133971500Y-100800861D01*
X133971500Y-100619139D01*
X133943072Y-100439654D01*
X133943071Y-100439650D01*
X133943071Y-100439649D01*
X133886918Y-100266828D01*
X133886916Y-100266825D01*
X133862578Y-100219057D01*
X133804417Y-100104910D01*
X133697603Y-99957894D01*
X133569106Y-99829397D01*
X133422090Y-99722583D01*
X133260174Y-99640083D01*
X133260171Y-99640081D01*
X133087348Y-99583928D01*
X132948325Y-99561909D01*
X132907861Y-99555500D01*
X132726139Y-99555500D01*
X132685675Y-99561909D01*
X132546652Y-99583928D01*
X132546649Y-99583928D01*
X132373828Y-99640081D01*
X132373825Y-99640083D01*
X132211909Y-99722583D01*
X132151110Y-99766757D01*
X132064894Y-99829397D01*
X132064892Y-99829399D01*
X132064891Y-99829399D01*
X131936399Y-99957891D01*
X131936399Y-99957892D01*
X131936397Y-99957894D01*
X131932841Y-99962789D01*
X131829583Y-100104909D01*
X131747083Y-100266825D01*
X131747081Y-100266828D01*
X131690928Y-100439652D01*
X131682178Y-100494898D01*
X131652249Y-100558033D01*
X131592937Y-100594964D01*
X131559705Y-100599500D01*
X118300098Y-100599500D01*
X118233059Y-100579815D01*
X118212417Y-100563181D01*
X114241819Y-96592583D01*
X114208334Y-96531260D01*
X114205500Y-96504902D01*
X114205500Y-94755010D01*
X114225185Y-94687971D01*
X114277989Y-94642216D01*
X114347147Y-94632272D01*
X114348828Y-94632526D01*
X114410007Y-94642216D01*
X114487561Y-94654500D01*
X114487565Y-94654500D01*
X114672440Y-94654500D01*
X114855030Y-94625580D01*
X115030849Y-94568453D01*
X115030852Y-94568452D01*
X115041197Y-94563181D01*
X115195572Y-94484523D01*
X115345136Y-94375859D01*
X115475859Y-94245136D01*
X115584523Y-94095572D01*
X115668452Y-93930852D01*
X115725580Y-93755029D01*
X115754500Y-93572440D01*
X115754500Y-93387559D01*
X115725580Y-93204969D01*
X115668453Y-93029150D01*
X115668452Y-93029147D01*
X115637402Y-92968209D01*
X115584523Y-92864428D01*
X115560441Y-92831282D01*
X115475864Y-92714870D01*
X115475860Y-92714865D01*
X115345134Y-92584139D01*
X115345129Y-92584135D01*
X115195575Y-92475479D01*
X115195574Y-92475478D01*
X115195572Y-92475477D01*
X115142799Y-92448588D01*
X115030852Y-92391547D01*
X115030849Y-92391546D01*
X114855030Y-92334420D01*
X114842737Y-92332473D01*
X114779602Y-92302544D01*
X114742671Y-92243232D01*
X114743669Y-92173370D01*
X114782279Y-92115137D01*
X114842737Y-92087527D01*
X114844508Y-92087246D01*
X114855029Y-92085580D01*
X115030852Y-92028452D01*
X115195572Y-91944523D01*
X115345136Y-91835859D01*
X115475859Y-91705136D01*
X115584523Y-91555572D01*
X115668452Y-91390852D01*
X115718187Y-91237782D01*
X115725580Y-91215030D01*
X115754500Y-91032440D01*
X115754500Y-90847559D01*
X115725580Y-90664969D01*
X115668453Y-90489150D01*
X115668452Y-90489147D01*
X115627797Y-90409358D01*
X115584523Y-90324428D01*
X115554974Y-90283757D01*
X115475864Y-90174870D01*
X115475860Y-90174865D01*
X115345134Y-90044139D01*
X115345129Y-90044135D01*
X115195575Y-89935479D01*
X115195574Y-89935478D01*
X115195572Y-89935477D01*
X115110595Y-89892179D01*
X115030852Y-89851547D01*
X115030849Y-89851546D01*
X114855030Y-89794420D01*
X114842737Y-89792473D01*
X114779602Y-89762544D01*
X114742671Y-89703232D01*
X114743669Y-89633370D01*
X114782279Y-89575137D01*
X114842737Y-89547527D01*
X114844508Y-89547246D01*
X114855029Y-89545580D01*
X115030852Y-89488452D01*
X115195572Y-89404523D01*
X115345136Y-89295859D01*
X115475859Y-89165136D01*
X115584523Y-89015572D01*
X115668452Y-88850852D01*
X115668453Y-88850849D01*
X115725580Y-88675030D01*
X115754500Y-88492440D01*
X115754500Y-88307559D01*
X115725580Y-88124969D01*
X115668453Y-87949150D01*
X115668452Y-87949147D01*
X115627797Y-87869358D01*
X115584523Y-87784428D01*
X115558336Y-87748385D01*
X115475864Y-87634870D01*
X115475860Y-87634865D01*
X115345134Y-87504139D01*
X115345129Y-87504135D01*
X115195575Y-87395479D01*
X115195574Y-87395478D01*
X115195572Y-87395477D01*
X115142799Y-87368588D01*
X115030852Y-87311547D01*
X115030849Y-87311546D01*
X114855030Y-87254420D01*
X114842737Y-87252473D01*
X114779602Y-87222544D01*
X114742671Y-87163232D01*
X114743669Y-87093370D01*
X114782279Y-87035137D01*
X114842737Y-87007527D01*
X114844508Y-87007246D01*
X114855029Y-87005580D01*
X115030852Y-86948452D01*
X115195572Y-86864523D01*
X115345136Y-86755859D01*
X115475859Y-86625136D01*
X115584523Y-86475572D01*
X115668452Y-86310852D01*
X115692507Y-86236819D01*
X115725580Y-86135030D01*
X115754500Y-85952440D01*
X115754500Y-85767559D01*
X115732549Y-85628971D01*
X115741503Y-85559678D01*
X115767338Y-85521895D01*
X116357416Y-84931819D01*
X116418739Y-84898334D01*
X116445097Y-84895500D01*
X128825623Y-84895500D01*
X128892662Y-84915185D01*
X128938417Y-84967989D01*
X128948361Y-85037147D01*
X128925941Y-85092385D01*
X128815479Y-85244424D01*
X128731547Y-85409147D01*
X128731546Y-85409150D01*
X128674419Y-85584969D01*
X128645500Y-85767559D01*
X128645500Y-85952440D01*
X128674419Y-86135030D01*
X128731546Y-86310849D01*
X128731547Y-86310852D01*
X128786946Y-86419576D01*
X128812102Y-86468949D01*
X128815479Y-86475575D01*
X128924135Y-86625129D01*
X128924139Y-86625134D01*
X129054865Y-86755860D01*
X129054870Y-86755864D01*
X129185318Y-86850639D01*
X129204428Y-86864523D01*
X129268180Y-86897006D01*
X129369147Y-86948452D01*
X129369150Y-86948453D01*
X129398081Y-86957853D01*
X129544971Y-87005580D01*
X129555150Y-87007192D01*
X129557263Y-87007527D01*
X129620397Y-87037457D01*
X129657328Y-87096769D01*
X129656330Y-87166631D01*
X129617719Y-87224864D01*
X129557263Y-87252473D01*
X129544969Y-87254420D01*
X129369150Y-87311546D01*
X129369147Y-87311547D01*
X129204424Y-87395479D01*
X129054870Y-87504135D01*
X129054865Y-87504139D01*
X128924139Y-87634865D01*
X128924135Y-87634870D01*
X128815479Y-87784424D01*
X128731547Y-87949147D01*
X128731546Y-87949150D01*
X128674419Y-88124969D01*
X128645500Y-88307559D01*
X128645500Y-88492440D01*
X128674419Y-88675030D01*
X128731546Y-88850849D01*
X128731547Y-88850852D01*
X128788588Y-88962799D01*
X128812102Y-89008949D01*
X128815479Y-89015575D01*
X128924135Y-89165129D01*
X128924139Y-89165134D01*
X129054865Y-89295860D01*
X129054870Y-89295864D01*
X129127240Y-89348443D01*
X129204428Y-89404523D01*
X129312106Y-89459388D01*
X129369147Y-89488452D01*
X129369150Y-89488453D01*
X129445500Y-89513260D01*
X129544971Y-89545580D01*
X129555150Y-89547192D01*
X129557263Y-89547527D01*
X129620397Y-89577457D01*
X129657328Y-89636769D01*
X129656330Y-89706631D01*
X129617719Y-89764864D01*
X129557263Y-89792473D01*
X129544969Y-89794420D01*
X129369150Y-89851546D01*
X129369147Y-89851547D01*
X129204424Y-89935479D01*
X129054870Y-90044135D01*
X129054865Y-90044139D01*
X128924139Y-90174865D01*
X128924135Y-90174870D01*
X128815479Y-90324424D01*
X128731547Y-90489147D01*
X128731546Y-90489150D01*
X128674419Y-90664969D01*
X128645500Y-90847559D01*
X128645500Y-91032440D01*
X128674419Y-91215030D01*
X128731546Y-91390849D01*
X128731547Y-91390852D01*
X128776862Y-91479786D01*
X128812102Y-91548949D01*
X128815479Y-91555575D01*
X128924135Y-91705129D01*
X128924139Y-91705134D01*
X129054865Y-91835860D01*
X129054870Y-91835864D01*
X129166884Y-91917246D01*
X129204428Y-91944523D01*
X129312106Y-91999388D01*
X129369147Y-92028452D01*
X129369150Y-92028453D01*
X129445500Y-92053260D01*
X129544971Y-92085580D01*
X129555150Y-92087192D01*
X129557263Y-92087527D01*
X129620397Y-92117457D01*
X129657328Y-92176769D01*
X129656330Y-92246631D01*
X129617719Y-92304864D01*
X129557263Y-92332473D01*
X129544969Y-92334420D01*
X129369150Y-92391546D01*
X129369147Y-92391547D01*
X129204424Y-92475479D01*
X129054870Y-92584135D01*
X129054865Y-92584139D01*
X128924139Y-92714865D01*
X128924135Y-92714870D01*
X128815479Y-92864424D01*
X128731547Y-93029147D01*
X128731546Y-93029150D01*
X128674419Y-93204969D01*
X128645500Y-93387559D01*
X128645500Y-93572440D01*
X128674419Y-93755030D01*
X128731546Y-93930849D01*
X128731547Y-93930852D01*
X128815479Y-94095575D01*
X128924135Y-94245129D01*
X128924139Y-94245134D01*
X129054865Y-94375860D01*
X129054870Y-94375864D01*
X129185318Y-94470639D01*
X129204428Y-94484523D01*
X129312106Y-94539388D01*
X129369147Y-94568452D01*
X129369150Y-94568453D01*
X129544969Y-94625580D01*
X129727560Y-94654500D01*
X129727565Y-94654500D01*
X129912440Y-94654500D01*
X130095030Y-94625580D01*
X130270849Y-94568453D01*
X130270852Y-94568452D01*
X130281197Y-94563181D01*
X130435572Y-94484523D01*
X130585136Y-94375859D01*
X130715859Y-94245136D01*
X130824523Y-94095572D01*
X130908452Y-93930852D01*
X130965580Y-93755029D01*
X130994500Y-93572440D01*
X130994500Y-93387559D01*
X130965580Y-93204969D01*
X130908453Y-93029150D01*
X130908452Y-93029147D01*
X130877402Y-92968209D01*
X130824523Y-92864428D01*
X130800441Y-92831282D01*
X130715864Y-92714870D01*
X130715860Y-92714865D01*
X130585134Y-92584139D01*
X130585129Y-92584135D01*
X130435575Y-92475479D01*
X130435574Y-92475478D01*
X130435572Y-92475477D01*
X130382799Y-92448588D01*
X130270852Y-92391547D01*
X130270849Y-92391546D01*
X130095030Y-92334420D01*
X130082737Y-92332473D01*
X130019602Y-92302544D01*
X129982671Y-92243232D01*
X129983669Y-92173370D01*
X130022279Y-92115137D01*
X130082737Y-92087527D01*
X130084508Y-92087246D01*
X130095029Y-92085580D01*
X130270852Y-92028452D01*
X130435572Y-91944523D01*
X130585136Y-91835859D01*
X130715859Y-91705136D01*
X130715861Y-91705132D01*
X130715864Y-91705130D01*
X130798337Y-91591615D01*
X130853666Y-91548949D01*
X130898655Y-91540500D01*
X132439903Y-91540500D01*
X132506942Y-91560185D01*
X132527584Y-91576819D01*
X134363181Y-93412416D01*
X134396666Y-93473739D01*
X134399500Y-93500097D01*
X134399500Y-115813330D01*
X134399499Y-115813348D01*
X134399499Y-115979054D01*
X134399498Y-115979054D01*
X134440423Y-116131786D01*
X134451227Y-116150497D01*
X134451228Y-116150502D01*
X134451229Y-116150502D01*
X134519475Y-116268709D01*
X134519481Y-116268717D01*
X134638349Y-116387585D01*
X134638355Y-116387590D01*
X135697200Y-117446435D01*
X135730685Y-117507758D01*
X135727450Y-117572433D01*
X135686447Y-117698628D01*
X135649500Y-117931902D01*
X135649500Y-118168097D01*
X135686446Y-118401368D01*
X135759433Y-118625996D01*
X135848790Y-118801368D01*
X135866657Y-118836433D01*
X136005483Y-119027510D01*
X136172490Y-119194517D01*
X136363567Y-119333343D01*
X136436688Y-119370600D01*
X136574003Y-119440566D01*
X136574005Y-119440566D01*
X136574008Y-119440568D01*
X136687414Y-119477416D01*
X136798631Y-119513553D01*
X137031903Y-119550500D01*
X137031908Y-119550500D01*
X137268097Y-119550500D01*
X137501368Y-119513553D01*
X137725992Y-119440568D01*
X137936433Y-119333343D01*
X138127510Y-119194517D01*
X138294517Y-119027510D01*
X138433343Y-118836433D01*
X138493583Y-118718204D01*
X138541558Y-118667409D01*
X138604068Y-118650500D01*
X142195932Y-118650500D01*
X142262971Y-118670185D01*
X142306416Y-118718203D01*
X142366657Y-118836433D01*
X142505483Y-119027510D01*
X142672490Y-119194517D01*
X142863567Y-119333343D01*
X142936688Y-119370600D01*
X143074003Y-119440566D01*
X143074005Y-119440566D01*
X143074008Y-119440568D01*
X143187414Y-119477416D01*
X143298631Y-119513553D01*
X143531903Y-119550500D01*
X143531908Y-119550500D01*
X143768097Y-119550500D01*
X144001368Y-119513553D01*
X144225992Y-119440568D01*
X144436433Y-119333343D01*
X144627510Y-119194517D01*
X144794517Y-119027510D01*
X144933343Y-118836433D01*
X145040568Y-118625992D01*
X145113553Y-118401368D01*
X145124160Y-118334397D01*
X145150500Y-118168097D01*
X145150500Y-117931902D01*
X145113553Y-117698631D01*
X145054770Y-117517717D01*
X145040568Y-117474008D01*
X145040566Y-117474005D01*
X145040566Y-117474003D01*
X144933342Y-117263566D01*
X144928118Y-117256376D01*
X144794517Y-117072490D01*
X144627510Y-116905483D01*
X144436433Y-116766657D01*
X144225996Y-116659433D01*
X144001368Y-116586446D01*
X143768097Y-116549500D01*
X143768092Y-116549500D01*
X143531908Y-116549500D01*
X143531903Y-116549500D01*
X143298631Y-116586446D01*
X143074003Y-116659433D01*
X142863566Y-116766657D01*
X142754550Y-116845862D01*
X142672490Y-116905483D01*
X142672488Y-116905485D01*
X142672487Y-116905485D01*
X142505485Y-117072487D01*
X142505485Y-117072488D01*
X142505483Y-117072490D01*
X142487477Y-117097273D01*
X142366657Y-117263566D01*
X142341832Y-117312289D01*
X142306932Y-117380785D01*
X142306417Y-117381795D01*
X142258442Y-117432591D01*
X142195932Y-117449500D01*
X138604068Y-117449500D01*
X138537029Y-117429815D01*
X138493583Y-117381795D01*
X138433343Y-117263567D01*
X138294517Y-117072490D01*
X138127510Y-116905483D01*
X137936433Y-116766657D01*
X137725996Y-116659433D01*
X137501368Y-116586446D01*
X137268097Y-116549500D01*
X137268092Y-116549500D01*
X137031908Y-116549500D01*
X137031903Y-116549500D01*
X136798628Y-116586447D01*
X136672433Y-116627450D01*
X136602592Y-116629445D01*
X136546435Y-116597200D01*
X135636819Y-115687584D01*
X135603334Y-115626261D01*
X135600500Y-115599903D01*
X135600500Y-114329465D01*
X135620185Y-114262426D01*
X135672989Y-114216671D01*
X135742147Y-114206727D01*
X135805703Y-114235752D01*
X135834985Y-114273171D01*
X135867085Y-114336172D01*
X135927338Y-114419104D01*
X135927340Y-114419105D01*
X136626212Y-113720233D01*
X136637482Y-113762292D01*
X136709890Y-113887708D01*
X136812292Y-113990110D01*
X136937708Y-114062518D01*
X136979765Y-114073787D01*
X136280893Y-114772658D01*
X136363828Y-114832914D01*
X136574197Y-114940102D01*
X136798752Y-115013065D01*
X136798751Y-115013065D01*
X137031948Y-115050000D01*
X137268052Y-115050000D01*
X137501247Y-115013065D01*
X137725802Y-114940102D01*
X137936163Y-114832918D01*
X137936169Y-114832914D01*
X138019104Y-114772658D01*
X138019105Y-114772658D01*
X137320233Y-114073787D01*
X137362292Y-114062518D01*
X137487708Y-113990110D01*
X137590110Y-113887708D01*
X137662518Y-113762292D01*
X137673787Y-113720234D01*
X138372658Y-114419105D01*
X138372658Y-114419104D01*
X138432914Y-114336169D01*
X138432918Y-114336163D01*
X138540102Y-114125802D01*
X138613065Y-113901247D01*
X138650000Y-113668052D01*
X138650000Y-113431947D01*
X142150000Y-113431947D01*
X142150000Y-113668052D01*
X142186934Y-113901247D01*
X142259897Y-114125802D01*
X142367087Y-114336174D01*
X142427338Y-114419104D01*
X142427340Y-114419105D01*
X143126212Y-113720233D01*
X143137482Y-113762292D01*
X143209890Y-113887708D01*
X143312292Y-113990110D01*
X143437708Y-114062518D01*
X143479765Y-114073787D01*
X142780893Y-114772658D01*
X142863828Y-114832914D01*
X143074197Y-114940102D01*
X143298752Y-115013065D01*
X143298751Y-115013065D01*
X143531948Y-115050000D01*
X143768052Y-115050000D01*
X144001247Y-115013065D01*
X144225802Y-114940102D01*
X144436163Y-114832918D01*
X144436169Y-114832914D01*
X144519104Y-114772658D01*
X144519105Y-114772658D01*
X143820233Y-114073787D01*
X143862292Y-114062518D01*
X143987708Y-113990110D01*
X144090110Y-113887708D01*
X144162518Y-113762292D01*
X144173787Y-113720233D01*
X144872658Y-114419105D01*
X144872658Y-114419104D01*
X144932914Y-114336169D01*
X144932918Y-114336163D01*
X145040102Y-114125802D01*
X145113065Y-113901247D01*
X145150000Y-113668052D01*
X145150000Y-113431947D01*
X145113065Y-113198752D01*
X145040102Y-112974197D01*
X144932914Y-112763828D01*
X144872658Y-112680894D01*
X144872658Y-112680893D01*
X144173787Y-113379765D01*
X144162518Y-113337708D01*
X144090110Y-113212292D01*
X143987708Y-113109890D01*
X143862292Y-113037482D01*
X143820234Y-113026212D01*
X144519105Y-112327340D01*
X144519104Y-112327338D01*
X144436174Y-112267087D01*
X144225802Y-112159897D01*
X144001247Y-112086934D01*
X144001248Y-112086934D01*
X143768052Y-112050000D01*
X143531948Y-112050000D01*
X143298752Y-112086934D01*
X143074197Y-112159897D01*
X142863830Y-112267084D01*
X142780894Y-112327340D01*
X143479766Y-113026212D01*
X143437708Y-113037482D01*
X143312292Y-113109890D01*
X143209890Y-113212292D01*
X143137482Y-113337708D01*
X143126212Y-113379766D01*
X142427340Y-112680894D01*
X142367084Y-112763830D01*
X142259897Y-112974197D01*
X142186934Y-113198752D01*
X142150000Y-113431947D01*
X138650000Y-113431947D01*
X138613065Y-113198752D01*
X138540102Y-112974197D01*
X138432914Y-112763828D01*
X138372658Y-112680894D01*
X138372658Y-112680893D01*
X137673787Y-113379765D01*
X137662518Y-113337708D01*
X137590110Y-113212292D01*
X137487708Y-113109890D01*
X137362292Y-113037482D01*
X137320234Y-113026212D01*
X138019105Y-112327340D01*
X138019104Y-112327339D01*
X137936174Y-112267087D01*
X137725802Y-112159897D01*
X137501247Y-112086934D01*
X137501248Y-112086934D01*
X137268052Y-112050000D01*
X137031948Y-112050000D01*
X136798752Y-112086934D01*
X136574197Y-112159897D01*
X136363830Y-112267084D01*
X136280894Y-112327340D01*
X136979766Y-113026212D01*
X136937708Y-113037482D01*
X136812292Y-113109890D01*
X136709890Y-113212292D01*
X136637482Y-113337708D01*
X136626212Y-113379765D01*
X135927340Y-112680894D01*
X135867083Y-112763832D01*
X135834984Y-112826830D01*
X135787010Y-112877625D01*
X135719189Y-112894420D01*
X135653054Y-112871882D01*
X135609603Y-112817167D01*
X135600500Y-112770534D01*
X135600500Y-105859568D01*
X135862000Y-105859568D01*
X135862000Y-106140431D01*
X135893442Y-106419494D01*
X135893445Y-106419512D01*
X135955939Y-106693317D01*
X135955943Y-106693329D01*
X136048700Y-106958411D01*
X136170553Y-107211442D01*
X136170555Y-107211445D01*
X136319977Y-107449248D01*
X136422567Y-107577892D01*
X136477598Y-107646899D01*
X136495084Y-107668825D01*
X136693675Y-107867416D01*
X136913252Y-108042523D01*
X137151055Y-108191945D01*
X137404092Y-108313801D01*
X137531263Y-108358300D01*
X137669170Y-108406556D01*
X137669182Y-108406560D01*
X137942991Y-108469055D01*
X137942997Y-108469055D01*
X137943005Y-108469057D01*
X138129047Y-108490018D01*
X138222069Y-108500499D01*
X138222072Y-108500500D01*
X138222075Y-108500500D01*
X138502928Y-108500500D01*
X138502929Y-108500499D01*
X138645555Y-108484429D01*
X138781994Y-108469057D01*
X138781999Y-108469056D01*
X138782009Y-108469055D01*
X139055818Y-108406560D01*
X139320908Y-108313801D01*
X139573945Y-108191945D01*
X139811748Y-108042523D01*
X140031325Y-107867416D01*
X140229916Y-107668825D01*
X140405023Y-107449248D01*
X140554445Y-107211445D01*
X140676301Y-106958408D01*
X140769060Y-106693318D01*
X140831555Y-106419509D01*
X140834307Y-106395090D01*
X140862999Y-106140431D01*
X140863000Y-106140427D01*
X140863000Y-105859572D01*
X140862999Y-105859568D01*
X140831557Y-105580505D01*
X140831554Y-105580487D01*
X140769060Y-105306682D01*
X140769056Y-105306670D01*
X140726450Y-105184909D01*
X140676301Y-105041592D01*
X140554445Y-104788555D01*
X140405023Y-104550752D01*
X140229916Y-104331175D01*
X140031325Y-104132584D01*
X139811748Y-103957477D01*
X139573945Y-103808055D01*
X139573942Y-103808053D01*
X139320911Y-103686200D01*
X139055829Y-103593443D01*
X139055817Y-103593439D01*
X138782012Y-103530945D01*
X138781994Y-103530942D01*
X138502931Y-103499500D01*
X138502925Y-103499500D01*
X138222075Y-103499500D01*
X138222068Y-103499500D01*
X137943005Y-103530942D01*
X137942987Y-103530945D01*
X137669182Y-103593439D01*
X137669170Y-103593443D01*
X137404088Y-103686200D01*
X137151057Y-103808053D01*
X136913253Y-103957476D01*
X136693675Y-104132583D01*
X136495083Y-104331175D01*
X136319976Y-104550753D01*
X136170553Y-104788557D01*
X136048700Y-105041588D01*
X135955943Y-105306670D01*
X135955939Y-105306682D01*
X135893445Y-105580487D01*
X135893442Y-105580505D01*
X135862000Y-105859568D01*
X135600500Y-105859568D01*
X135600500Y-93289060D01*
X135600501Y-93289047D01*
X135600501Y-93120944D01*
X135600501Y-93120943D01*
X135559577Y-92968216D01*
X135499656Y-92864428D01*
X135480524Y-92831290D01*
X135480518Y-92831282D01*
X133227590Y-90578355D01*
X133227588Y-90578352D01*
X133108717Y-90459481D01*
X133108716Y-90459480D01*
X133021904Y-90409360D01*
X133021904Y-90409359D01*
X133021900Y-90409358D01*
X132971785Y-90380423D01*
X132819057Y-90339499D01*
X132660943Y-90339499D01*
X132653347Y-90339499D01*
X132653331Y-90339500D01*
X130898655Y-90339500D01*
X130831616Y-90319815D01*
X130798337Y-90288385D01*
X130715864Y-90174869D01*
X130585134Y-90044139D01*
X130585129Y-90044135D01*
X130435575Y-89935479D01*
X130435574Y-89935478D01*
X130435572Y-89935477D01*
X130350595Y-89892179D01*
X130270852Y-89851547D01*
X130270849Y-89851546D01*
X130095030Y-89794420D01*
X130082737Y-89792473D01*
X130019602Y-89762544D01*
X129982671Y-89703232D01*
X129983669Y-89633370D01*
X130022279Y-89575137D01*
X130082737Y-89547527D01*
X130084508Y-89547246D01*
X130095029Y-89545580D01*
X130270852Y-89488452D01*
X130435572Y-89404523D01*
X130585136Y-89295859D01*
X130715859Y-89165136D01*
X130715861Y-89165132D01*
X130715864Y-89165130D01*
X130798337Y-89051615D01*
X130853666Y-89008949D01*
X130898655Y-89000500D01*
X134899903Y-89000500D01*
X134966942Y-89020185D01*
X134987584Y-89036819D01*
X146963181Y-101012416D01*
X146996666Y-101073739D01*
X146999500Y-101100097D01*
X146999500Y-115813330D01*
X146999499Y-115813348D01*
X146999499Y-115979054D01*
X146999498Y-115979054D01*
X147040423Y-116131786D01*
X147051227Y-116150497D01*
X147051228Y-116150502D01*
X147051229Y-116150502D01*
X147119475Y-116268709D01*
X147119481Y-116268717D01*
X147238349Y-116387585D01*
X147238355Y-116387590D01*
X148497200Y-117646435D01*
X148530685Y-117707758D01*
X148527450Y-117772433D01*
X148486447Y-117898628D01*
X148449500Y-118131902D01*
X148449500Y-118368097D01*
X148486446Y-118601368D01*
X148559433Y-118825996D01*
X148666657Y-119036433D01*
X148805483Y-119227510D01*
X148972490Y-119394517D01*
X149163567Y-119533343D01*
X149262991Y-119584002D01*
X149374003Y-119640566D01*
X149374005Y-119640566D01*
X149374008Y-119640568D01*
X149494412Y-119679689D01*
X149598631Y-119713553D01*
X149831903Y-119750500D01*
X149831908Y-119750500D01*
X150068097Y-119750500D01*
X150301368Y-119713553D01*
X150525992Y-119640568D01*
X150736433Y-119533343D01*
X150927510Y-119394517D01*
X151094517Y-119227510D01*
X151233343Y-119036433D01*
X151293583Y-118918204D01*
X151341558Y-118867409D01*
X151404068Y-118850500D01*
X154995932Y-118850500D01*
X155062971Y-118870185D01*
X155106416Y-118918203D01*
X155166657Y-119036433D01*
X155305483Y-119227510D01*
X155472490Y-119394517D01*
X155663567Y-119533343D01*
X155762991Y-119584002D01*
X155874003Y-119640566D01*
X155874005Y-119640566D01*
X155874008Y-119640568D01*
X155994412Y-119679689D01*
X156098631Y-119713553D01*
X156331903Y-119750500D01*
X156331908Y-119750500D01*
X156568097Y-119750500D01*
X156801368Y-119713553D01*
X157025992Y-119640568D01*
X157236433Y-119533343D01*
X157427510Y-119394517D01*
X157594517Y-119227510D01*
X157733343Y-119036433D01*
X157840568Y-118825992D01*
X157913553Y-118601368D01*
X157945583Y-118399139D01*
X157950500Y-118368097D01*
X157950500Y-118131902D01*
X157913553Y-117898631D01*
X157851534Y-117707758D01*
X157840568Y-117674008D01*
X157840566Y-117674005D01*
X157840566Y-117674003D01*
X157755859Y-117507758D01*
X157733343Y-117463567D01*
X157594517Y-117272490D01*
X157427510Y-117105483D01*
X157236433Y-116966657D01*
X157025996Y-116859433D01*
X156801368Y-116786446D01*
X156568097Y-116749500D01*
X156568092Y-116749500D01*
X156331908Y-116749500D01*
X156331903Y-116749500D01*
X156098631Y-116786446D01*
X155874003Y-116859433D01*
X155663566Y-116966657D01*
X155563774Y-117039161D01*
X155472490Y-117105483D01*
X155472488Y-117105485D01*
X155472487Y-117105485D01*
X155305485Y-117272487D01*
X155305485Y-117272488D01*
X155305483Y-117272490D01*
X155254822Y-117342219D01*
X155166657Y-117463566D01*
X155106417Y-117581795D01*
X155058442Y-117632591D01*
X154995932Y-117649500D01*
X151404068Y-117649500D01*
X151337029Y-117629815D01*
X151293583Y-117581795D01*
X151288813Y-117572433D01*
X151233343Y-117463567D01*
X151094517Y-117272490D01*
X150927510Y-117105483D01*
X150736433Y-116966657D01*
X150525996Y-116859433D01*
X150301368Y-116786446D01*
X150068097Y-116749500D01*
X150068092Y-116749500D01*
X149831908Y-116749500D01*
X149831903Y-116749500D01*
X149598628Y-116786447D01*
X149472433Y-116827450D01*
X149402592Y-116829445D01*
X149346435Y-116797200D01*
X148236819Y-115687584D01*
X148203334Y-115626261D01*
X148200500Y-115599903D01*
X148200500Y-113631947D01*
X148450000Y-113631947D01*
X148450000Y-113868052D01*
X148486934Y-114101247D01*
X148559897Y-114325802D01*
X148667087Y-114536174D01*
X148727338Y-114619104D01*
X148727340Y-114619105D01*
X149426212Y-113920233D01*
X149437482Y-113962292D01*
X149509890Y-114087708D01*
X149612292Y-114190110D01*
X149737708Y-114262518D01*
X149779765Y-114273787D01*
X149080893Y-114972658D01*
X149163828Y-115032914D01*
X149374197Y-115140102D01*
X149598752Y-115213065D01*
X149598751Y-115213065D01*
X149831948Y-115250000D01*
X150068052Y-115250000D01*
X150301247Y-115213065D01*
X150525802Y-115140102D01*
X150736163Y-115032918D01*
X150736169Y-115032914D01*
X150819104Y-114972658D01*
X150819105Y-114972658D01*
X150120233Y-114273787D01*
X150162292Y-114262518D01*
X150287708Y-114190110D01*
X150390110Y-114087708D01*
X150462518Y-113962292D01*
X150473787Y-113920234D01*
X151172658Y-114619105D01*
X151172658Y-114619104D01*
X151232914Y-114536169D01*
X151232918Y-114536163D01*
X151340102Y-114325802D01*
X151413065Y-114101247D01*
X151450000Y-113868052D01*
X151450000Y-113631947D01*
X154950000Y-113631947D01*
X154950000Y-113868052D01*
X154986934Y-114101247D01*
X155059897Y-114325802D01*
X155167087Y-114536174D01*
X155227338Y-114619104D01*
X155227340Y-114619105D01*
X155926212Y-113920233D01*
X155937482Y-113962292D01*
X156009890Y-114087708D01*
X156112292Y-114190110D01*
X156237708Y-114262518D01*
X156279765Y-114273787D01*
X155580893Y-114972658D01*
X155663828Y-115032914D01*
X155874197Y-115140102D01*
X156098752Y-115213065D01*
X156098751Y-115213065D01*
X156331948Y-115250000D01*
X156568052Y-115250000D01*
X156801247Y-115213065D01*
X157025802Y-115140102D01*
X157236163Y-115032918D01*
X157236169Y-115032914D01*
X157319104Y-114972658D01*
X157319105Y-114972658D01*
X156620233Y-114273787D01*
X156662292Y-114262518D01*
X156787708Y-114190110D01*
X156890110Y-114087708D01*
X156962518Y-113962292D01*
X156973787Y-113920234D01*
X157672658Y-114619105D01*
X157672658Y-114619104D01*
X157732914Y-114536169D01*
X157732918Y-114536163D01*
X157840102Y-114325802D01*
X157913065Y-114101247D01*
X157950000Y-113868052D01*
X157950000Y-113631947D01*
X157913065Y-113398752D01*
X157840102Y-113174197D01*
X157732914Y-112963828D01*
X157672658Y-112880894D01*
X157672658Y-112880893D01*
X156973787Y-113579765D01*
X156962518Y-113537708D01*
X156890110Y-113412292D01*
X156787708Y-113309890D01*
X156662292Y-113237482D01*
X156620234Y-113226212D01*
X157319105Y-112527340D01*
X157319104Y-112527338D01*
X157236174Y-112467087D01*
X157025802Y-112359897D01*
X156801247Y-112286934D01*
X156801248Y-112286934D01*
X156568052Y-112250000D01*
X156331948Y-112250000D01*
X156098752Y-112286934D01*
X155874197Y-112359897D01*
X155663830Y-112467084D01*
X155580894Y-112527340D01*
X156279766Y-113226212D01*
X156237708Y-113237482D01*
X156112292Y-113309890D01*
X156009890Y-113412292D01*
X155937482Y-113537708D01*
X155926212Y-113579766D01*
X155227340Y-112880894D01*
X155167084Y-112963830D01*
X155059897Y-113174197D01*
X154986934Y-113398752D01*
X154950000Y-113631947D01*
X151450000Y-113631947D01*
X151413065Y-113398752D01*
X151340102Y-113174197D01*
X151232914Y-112963828D01*
X151172658Y-112880894D01*
X151172658Y-112880893D01*
X150473787Y-113579765D01*
X150462518Y-113537708D01*
X150390110Y-113412292D01*
X150287708Y-113309890D01*
X150162292Y-113237482D01*
X150120234Y-113226212D01*
X150819105Y-112527340D01*
X150819104Y-112527339D01*
X150736174Y-112467087D01*
X150525802Y-112359897D01*
X150301247Y-112286934D01*
X150301248Y-112286934D01*
X150068052Y-112250000D01*
X149831948Y-112250000D01*
X149598752Y-112286934D01*
X149374197Y-112359897D01*
X149163830Y-112467084D01*
X149080894Y-112527340D01*
X149779766Y-113226212D01*
X149737708Y-113237482D01*
X149612292Y-113309890D01*
X149509890Y-113412292D01*
X149437482Y-113537708D01*
X149426212Y-113579766D01*
X148727340Y-112880894D01*
X148667084Y-112963830D01*
X148559897Y-113174197D01*
X148486934Y-113398752D01*
X148450000Y-113631947D01*
X148200500Y-113631947D01*
X148200500Y-100720945D01*
X148200500Y-100720943D01*
X148176385Y-100630943D01*
X148159577Y-100568215D01*
X148130639Y-100518095D01*
X148080520Y-100431284D01*
X147968716Y-100319480D01*
X147968715Y-100319479D01*
X147964385Y-100315149D01*
X147964374Y-100315139D01*
X135687590Y-88038355D01*
X135687588Y-88038352D01*
X135568717Y-87919481D01*
X135568716Y-87919480D01*
X135481904Y-87869360D01*
X135481904Y-87869359D01*
X135481900Y-87869358D01*
X135431785Y-87840423D01*
X135279057Y-87799499D01*
X135120943Y-87799499D01*
X135113347Y-87799499D01*
X135113331Y-87799500D01*
X130898655Y-87799500D01*
X130831616Y-87779815D01*
X130798337Y-87748385D01*
X130715864Y-87634869D01*
X130585134Y-87504139D01*
X130585129Y-87504135D01*
X130435575Y-87395479D01*
X130435574Y-87395478D01*
X130435572Y-87395477D01*
X130382799Y-87368588D01*
X130270852Y-87311547D01*
X130270849Y-87311546D01*
X130095030Y-87254420D01*
X130082737Y-87252473D01*
X130019602Y-87222544D01*
X129982671Y-87163232D01*
X129983669Y-87093370D01*
X130022279Y-87035137D01*
X130082737Y-87007527D01*
X130084508Y-87007246D01*
X130095029Y-87005580D01*
X130270852Y-86948452D01*
X130435572Y-86864523D01*
X130585136Y-86755859D01*
X130715859Y-86625136D01*
X130715861Y-86625132D01*
X130715864Y-86625130D01*
X130798337Y-86511615D01*
X130802668Y-86508274D01*
X130804942Y-86503297D01*
X130830041Y-86487166D01*
X130853666Y-86468949D01*
X130860339Y-86467695D01*
X130863720Y-86465523D01*
X130898655Y-86460500D01*
X131053331Y-86460500D01*
X131053347Y-86460501D01*
X131060943Y-86460501D01*
X131219054Y-86460501D01*
X131219057Y-86460501D01*
X131371785Y-86419577D01*
X131421904Y-86390639D01*
X131508716Y-86340520D01*
X131612418Y-86236817D01*
X131673739Y-86203334D01*
X131700098Y-86200500D01*
X145499903Y-86200500D01*
X145566942Y-86220185D01*
X145587584Y-86236819D01*
X160812181Y-101461416D01*
X160845666Y-101522739D01*
X160848500Y-101549097D01*
X160848500Y-117062330D01*
X160848499Y-117062348D01*
X160848499Y-117228054D01*
X160848498Y-117228054D01*
X160889423Y-117380785D01*
X160904712Y-117407266D01*
X160968477Y-117517712D01*
X160968481Y-117517717D01*
X161087349Y-117636585D01*
X161087355Y-117636590D01*
X161297200Y-117846435D01*
X161330685Y-117907758D01*
X161327450Y-117972433D01*
X161286447Y-118098628D01*
X161249500Y-118331902D01*
X161249500Y-118568097D01*
X161286446Y-118801368D01*
X161359433Y-119025996D01*
X161466657Y-119236433D01*
X161605483Y-119427510D01*
X161772490Y-119594517D01*
X161963567Y-119733343D01*
X161997240Y-119750500D01*
X162174003Y-119840566D01*
X162174005Y-119840566D01*
X162174008Y-119840568D01*
X162267505Y-119870947D01*
X162398631Y-119913553D01*
X162631903Y-119950500D01*
X162631908Y-119950500D01*
X162868097Y-119950500D01*
X163101368Y-119913553D01*
X163106452Y-119911901D01*
X163325992Y-119840568D01*
X163536433Y-119733343D01*
X163727510Y-119594517D01*
X163894517Y-119427510D01*
X164033343Y-119236433D01*
X164093583Y-119118204D01*
X164141558Y-119067409D01*
X164204068Y-119050500D01*
X167795932Y-119050500D01*
X167862971Y-119070185D01*
X167906416Y-119118203D01*
X167966657Y-119236433D01*
X168105483Y-119427510D01*
X168272490Y-119594517D01*
X168463567Y-119733343D01*
X168497240Y-119750500D01*
X168674003Y-119840566D01*
X168674005Y-119840566D01*
X168674008Y-119840568D01*
X168767505Y-119870947D01*
X168898631Y-119913553D01*
X169131903Y-119950500D01*
X169131908Y-119950500D01*
X169368097Y-119950500D01*
X169601368Y-119913553D01*
X169606452Y-119911901D01*
X169825992Y-119840568D01*
X170036433Y-119733343D01*
X170227510Y-119594517D01*
X170394517Y-119427510D01*
X170533343Y-119236433D01*
X170640568Y-119025992D01*
X170713553Y-118801368D01*
X170726725Y-118718205D01*
X170750500Y-118568097D01*
X170750500Y-118331902D01*
X170713553Y-118098631D01*
X170651534Y-117907758D01*
X170640568Y-117874008D01*
X170640566Y-117874005D01*
X170640566Y-117874003D01*
X170576628Y-117748518D01*
X170533343Y-117663567D01*
X170394517Y-117472490D01*
X170227510Y-117305483D01*
X170036433Y-117166657D01*
X169825996Y-117059433D01*
X169601368Y-116986446D01*
X169368097Y-116949500D01*
X169368092Y-116949500D01*
X169131908Y-116949500D01*
X169131903Y-116949500D01*
X168898631Y-116986446D01*
X168674003Y-117059433D01*
X168463566Y-117166657D01*
X168379057Y-117228057D01*
X168272490Y-117305483D01*
X168272488Y-117305485D01*
X168272487Y-117305485D01*
X168105485Y-117472487D01*
X168105485Y-117472488D01*
X168105483Y-117472490D01*
X168072624Y-117517717D01*
X167966657Y-117663566D01*
X167906417Y-117781795D01*
X167858442Y-117832591D01*
X167795932Y-117849500D01*
X164204068Y-117849500D01*
X164137029Y-117829815D01*
X164093583Y-117781795D01*
X164088813Y-117772433D01*
X164033343Y-117663567D01*
X163894517Y-117472490D01*
X163727510Y-117305483D01*
X163536433Y-117166657D01*
X163325996Y-117059433D01*
X163101368Y-116986446D01*
X162868097Y-116949500D01*
X162868092Y-116949500D01*
X162631908Y-116949500D01*
X162631903Y-116949500D01*
X162398628Y-116986447D01*
X162272433Y-117027450D01*
X162257221Y-117027884D01*
X162242962Y-117033203D01*
X162223006Y-117028861D01*
X162202592Y-117029445D01*
X162188505Y-117021356D01*
X162174689Y-117018351D01*
X162146435Y-116997200D01*
X162085819Y-116936584D01*
X162052334Y-116875261D01*
X162049500Y-116848903D01*
X162049500Y-115470257D01*
X162069185Y-115403218D01*
X162121989Y-115357463D01*
X162191147Y-115347519D01*
X162211819Y-115352326D01*
X162398754Y-115413065D01*
X162631948Y-115450000D01*
X162868052Y-115450000D01*
X163101247Y-115413065D01*
X163325802Y-115340102D01*
X163536163Y-115232918D01*
X163536169Y-115232914D01*
X163619104Y-115172658D01*
X163619105Y-115172658D01*
X162920234Y-114473787D01*
X162962292Y-114462518D01*
X163087708Y-114390110D01*
X163190110Y-114287708D01*
X163262518Y-114162292D01*
X163273787Y-114120233D01*
X163972658Y-114819105D01*
X163972658Y-114819104D01*
X164032914Y-114736169D01*
X164032918Y-114736163D01*
X164140102Y-114525802D01*
X164213065Y-114301247D01*
X164250000Y-114068052D01*
X164250000Y-113831947D01*
X167750000Y-113831947D01*
X167750000Y-114068052D01*
X167786934Y-114301247D01*
X167859897Y-114525802D01*
X167967087Y-114736174D01*
X168027338Y-114819104D01*
X168027340Y-114819105D01*
X168726212Y-114120233D01*
X168737482Y-114162292D01*
X168809890Y-114287708D01*
X168912292Y-114390110D01*
X169037708Y-114462518D01*
X169079765Y-114473787D01*
X168380893Y-115172658D01*
X168463828Y-115232914D01*
X168674197Y-115340102D01*
X168898752Y-115413065D01*
X168898751Y-115413065D01*
X169131948Y-115450000D01*
X169368052Y-115450000D01*
X169601247Y-115413065D01*
X169825802Y-115340102D01*
X170036163Y-115232918D01*
X170036169Y-115232914D01*
X170119104Y-115172658D01*
X170119105Y-115172658D01*
X169420233Y-114473787D01*
X169462292Y-114462518D01*
X169587708Y-114390110D01*
X169690110Y-114287708D01*
X169762518Y-114162292D01*
X169773787Y-114120233D01*
X170472658Y-114819105D01*
X170472658Y-114819104D01*
X170532914Y-114736169D01*
X170532918Y-114736163D01*
X170640102Y-114525802D01*
X170713065Y-114301247D01*
X170750000Y-114068052D01*
X170750000Y-113831947D01*
X170713065Y-113598752D01*
X170640102Y-113374197D01*
X170532914Y-113163828D01*
X170472658Y-113080894D01*
X170472658Y-113080893D01*
X169773787Y-113779765D01*
X169762518Y-113737708D01*
X169690110Y-113612292D01*
X169587708Y-113509890D01*
X169462292Y-113437482D01*
X169420234Y-113426212D01*
X170119105Y-112727340D01*
X170119104Y-112727338D01*
X170036174Y-112667087D01*
X169825802Y-112559897D01*
X169601247Y-112486934D01*
X169601248Y-112486934D01*
X169368052Y-112450000D01*
X169131948Y-112450000D01*
X168898752Y-112486934D01*
X168674197Y-112559897D01*
X168463830Y-112667084D01*
X168380894Y-112727340D01*
X169079766Y-113426212D01*
X169037708Y-113437482D01*
X168912292Y-113509890D01*
X168809890Y-113612292D01*
X168737482Y-113737708D01*
X168726212Y-113779766D01*
X168027340Y-113080894D01*
X167967084Y-113163830D01*
X167859897Y-113374197D01*
X167786934Y-113598752D01*
X167750000Y-113831947D01*
X164250000Y-113831947D01*
X164213065Y-113598752D01*
X164140102Y-113374197D01*
X164032914Y-113163828D01*
X163972658Y-113080894D01*
X163972658Y-113080893D01*
X163273787Y-113779765D01*
X163262518Y-113737708D01*
X163190110Y-113612292D01*
X163087708Y-113509890D01*
X162962292Y-113437482D01*
X162920233Y-113426212D01*
X163619105Y-112727340D01*
X163619104Y-112727339D01*
X163536174Y-112667087D01*
X163325802Y-112559897D01*
X163101247Y-112486934D01*
X163101248Y-112486934D01*
X162868052Y-112450000D01*
X162631948Y-112450000D01*
X162398751Y-112486934D01*
X162211818Y-112547673D01*
X162141977Y-112549668D01*
X162082144Y-112513588D01*
X162051316Y-112450887D01*
X162049500Y-112429742D01*
X162049500Y-105859568D01*
X166162000Y-105859568D01*
X166162000Y-106140431D01*
X166193442Y-106419494D01*
X166193445Y-106419512D01*
X166255939Y-106693317D01*
X166255943Y-106693329D01*
X166348700Y-106958411D01*
X166470553Y-107211442D01*
X166470555Y-107211445D01*
X166619977Y-107449248D01*
X166722567Y-107577892D01*
X166777598Y-107646899D01*
X166795084Y-107668825D01*
X166993675Y-107867416D01*
X167213252Y-108042523D01*
X167451055Y-108191945D01*
X167704092Y-108313801D01*
X167831263Y-108358300D01*
X167969170Y-108406556D01*
X167969182Y-108406560D01*
X168242991Y-108469055D01*
X168242997Y-108469055D01*
X168243005Y-108469057D01*
X168429047Y-108490018D01*
X168522069Y-108500499D01*
X168522072Y-108500500D01*
X168522075Y-108500500D01*
X168802928Y-108500500D01*
X168802929Y-108500499D01*
X168945555Y-108484429D01*
X169081994Y-108469057D01*
X169081999Y-108469056D01*
X169082009Y-108469055D01*
X169355818Y-108406560D01*
X169620908Y-108313801D01*
X169873945Y-108191945D01*
X170111748Y-108042523D01*
X170331325Y-107867416D01*
X170529916Y-107668825D01*
X170705023Y-107449248D01*
X170854445Y-107211445D01*
X170976301Y-106958408D01*
X171069060Y-106693318D01*
X171131555Y-106419509D01*
X171134307Y-106395090D01*
X171162999Y-106140431D01*
X171163000Y-106140427D01*
X171163000Y-105859572D01*
X171162999Y-105859568D01*
X171131557Y-105580505D01*
X171131554Y-105580487D01*
X171069060Y-105306682D01*
X171069056Y-105306670D01*
X171026450Y-105184909D01*
X170976301Y-105041592D01*
X170854445Y-104788555D01*
X170705023Y-104550752D01*
X170529916Y-104331175D01*
X170331325Y-104132584D01*
X170111748Y-103957477D01*
X169873945Y-103808055D01*
X169873942Y-103808053D01*
X169620911Y-103686200D01*
X169355829Y-103593443D01*
X169355817Y-103593439D01*
X169082012Y-103530945D01*
X169081994Y-103530942D01*
X168802931Y-103499500D01*
X168802925Y-103499500D01*
X168522075Y-103499500D01*
X168522068Y-103499500D01*
X168243005Y-103530942D01*
X168242987Y-103530945D01*
X167969182Y-103593439D01*
X167969170Y-103593443D01*
X167704088Y-103686200D01*
X167451057Y-103808053D01*
X167213253Y-103957476D01*
X166993675Y-104132583D01*
X166795083Y-104331175D01*
X166619976Y-104550753D01*
X166470553Y-104788557D01*
X166348700Y-105041588D01*
X166255943Y-105306670D01*
X166255939Y-105306682D01*
X166193445Y-105580487D01*
X166193442Y-105580505D01*
X166162000Y-105859568D01*
X162049500Y-105859568D01*
X162049500Y-101338059D01*
X162049501Y-101338046D01*
X162049501Y-101169945D01*
X162049501Y-101169943D01*
X162008577Y-101017215D01*
X162008576Y-101017214D01*
X162008576Y-101017212D01*
X162008575Y-101017211D01*
X161965027Y-100941784D01*
X161965027Y-100941783D01*
X161929524Y-100880290D01*
X161929521Y-100880286D01*
X161929520Y-100880284D01*
X161817716Y-100768480D01*
X161817715Y-100768479D01*
X161813385Y-100764149D01*
X161813374Y-100764139D01*
X146287915Y-85238680D01*
X146280521Y-85231286D01*
X146280520Y-85231284D01*
X146168716Y-85119480D01*
X146164355Y-85116962D01*
X146155092Y-85107837D01*
X146141689Y-85083724D01*
X146125421Y-85061443D01*
X146124955Y-85053618D01*
X146121147Y-85046767D01*
X146122908Y-85019235D01*
X146121269Y-84991697D01*
X146125107Y-84984862D01*
X146125608Y-84977040D01*
X146141974Y-84954831D01*
X146155484Y-84930778D01*
X146162407Y-84927103D01*
X146167058Y-84920794D01*
X146192834Y-84910958D01*
X146217203Y-84898028D01*
X146230173Y-84896711D01*
X146232337Y-84895886D01*
X146234284Y-84896294D01*
X146242112Y-84895500D01*
X148000831Y-84895500D01*
X148000847Y-84895501D01*
X148008443Y-84895501D01*
X148166554Y-84895501D01*
X148166557Y-84895501D01*
X148319285Y-84854577D01*
X148369404Y-84825639D01*
X148456216Y-84775520D01*
X148568020Y-84663716D01*
X148568020Y-84663714D01*
X148578228Y-84653507D01*
X148578229Y-84653504D01*
X154317818Y-78913916D01*
X154379139Y-78880433D01*
X154443817Y-78883669D01*
X154472103Y-78892860D01*
X154472106Y-78892860D01*
X154472111Y-78892862D01*
X154567551Y-78907978D01*
X154678176Y-78925500D01*
X154678181Y-78925500D01*
X154886824Y-78925500D01*
X155092889Y-78892862D01*
X155131141Y-78880433D01*
X155291316Y-78828389D01*
X155477214Y-78733670D01*
X155646005Y-78611035D01*
X155793535Y-78463505D01*
X155916170Y-78294714D01*
X155942015Y-78243990D01*
X155989989Y-78193194D01*
X156057810Y-78176398D01*
X156123945Y-78198935D01*
X156162985Y-78243990D01*
X156188828Y-78294712D01*
X156224506Y-78343818D01*
X156311465Y-78463505D01*
X156458995Y-78611035D01*
X156627786Y-78733670D01*
X156715616Y-78778421D01*
X156813679Y-78828387D01*
X156813681Y-78828387D01*
X156813684Y-78828389D01*
X156897354Y-78855575D01*
X157012110Y-78892862D01*
X157218176Y-78925500D01*
X157218181Y-78925500D01*
X157426824Y-78925500D01*
X157632889Y-78892862D01*
X157671141Y-78880433D01*
X157831316Y-78828389D01*
X158017214Y-78733670D01*
X158186005Y-78611035D01*
X158333535Y-78463505D01*
X158456170Y-78294714D01*
X158550889Y-78108816D01*
X158615362Y-77910389D01*
X158619154Y-77886446D01*
X158648000Y-77704324D01*
X158648000Y-77495675D01*
X158615362Y-77289610D01*
X158579905Y-77180487D01*
X158550889Y-77091184D01*
X158550887Y-77091181D01*
X158550887Y-77091179D01*
X158456875Y-76906670D01*
X158456170Y-76905286D01*
X158333535Y-76736495D01*
X158186005Y-76588965D01*
X158017802Y-76466757D01*
X158017212Y-76466328D01*
X157955696Y-76434985D01*
X157904899Y-76387011D01*
X157888104Y-76319190D01*
X157910641Y-76253055D01*
X157965356Y-76209603D01*
X158011990Y-76200500D01*
X159817403Y-76200500D01*
X159884442Y-76220185D01*
X159905084Y-76236819D01*
X178656084Y-94987819D01*
X178689569Y-95049142D01*
X178684585Y-95118834D01*
X178642713Y-95174767D01*
X178577249Y-95199184D01*
X178568403Y-95199500D01*
X176279057Y-95199500D01*
X176120942Y-95199500D01*
X175968215Y-95240423D01*
X175968214Y-95240423D01*
X175968212Y-95240424D01*
X175968209Y-95240425D01*
X175918096Y-95269359D01*
X175918095Y-95269360D01*
X175874689Y-95294420D01*
X175831285Y-95319479D01*
X175831282Y-95319481D01*
X173119481Y-98031282D01*
X173119479Y-98031285D01*
X173099774Y-98065416D01*
X173087857Y-98086058D01*
X173069361Y-98118094D01*
X173069359Y-98118096D01*
X173040425Y-98168209D01*
X173040424Y-98168210D01*
X173040423Y-98168215D01*
X172999499Y-98320943D01*
X172999499Y-98320945D01*
X172999499Y-98489046D01*
X172999500Y-98489059D01*
X172999500Y-110226557D01*
X173009777Y-110264909D01*
X173040423Y-110379283D01*
X173040426Y-110379290D01*
X173119475Y-110516209D01*
X173119479Y-110516214D01*
X173119480Y-110516216D01*
X173231284Y-110628020D01*
X173231286Y-110628021D01*
X173231290Y-110628024D01*
X173336590Y-110688818D01*
X173368216Y-110707077D01*
X173520943Y-110748000D01*
X173679057Y-110748000D01*
X174590715Y-110748000D01*
X174657754Y-110767685D01*
X174678391Y-110784314D01*
X174763682Y-110869605D01*
X174763689Y-110869612D01*
X174882606Y-110960860D01*
X174966535Y-111025261D01*
X174966542Y-111025265D01*
X175187957Y-111153100D01*
X175187962Y-111153102D01*
X175187965Y-111153104D01*
X175288408Y-111194708D01*
X175375453Y-111230764D01*
X175429856Y-111274605D01*
X175451921Y-111340899D01*
X175452000Y-111345325D01*
X175452000Y-112254676D01*
X175432315Y-112321715D01*
X175379511Y-112367470D01*
X175375453Y-112369237D01*
X175187968Y-112446895D01*
X175187957Y-112446900D01*
X174966542Y-112574735D01*
X174966526Y-112574746D01*
X174763688Y-112730389D01*
X174763681Y-112730395D01*
X174582894Y-112911182D01*
X174582888Y-112911189D01*
X174427245Y-113114027D01*
X174427234Y-113114043D01*
X174299399Y-113335458D01*
X174299394Y-113335469D01*
X174201553Y-113571678D01*
X174201550Y-113571688D01*
X174140487Y-113799581D01*
X174135374Y-113818662D01*
X174102000Y-114072150D01*
X174102000Y-114327851D01*
X174119730Y-114462518D01*
X174135374Y-114581341D01*
X174201550Y-114828313D01*
X174201553Y-114828323D01*
X174299394Y-115064532D01*
X174299399Y-115064543D01*
X174427234Y-115285958D01*
X174427245Y-115285974D01*
X174582888Y-115488812D01*
X174582894Y-115488819D01*
X174763681Y-115669606D01*
X174763688Y-115669612D01*
X174787110Y-115687584D01*
X174966535Y-115825262D01*
X174966542Y-115825266D01*
X175187957Y-115953101D01*
X175187962Y-115953103D01*
X175187965Y-115953105D01*
X175424187Y-116050951D01*
X175671160Y-116117127D01*
X175913260Y-116149000D01*
X175924626Y-116150497D01*
X175924657Y-116150501D01*
X175924664Y-116150501D01*
X176180336Y-116150501D01*
X176180343Y-116150501D01*
X176433840Y-116117127D01*
X176680813Y-116050951D01*
X176917035Y-115953105D01*
X177138465Y-115825262D01*
X177341313Y-115669611D01*
X177522110Y-115488814D01*
X177677761Y-115285966D01*
X177805604Y-115064536D01*
X177903450Y-114828314D01*
X177969626Y-114581341D01*
X178003000Y-114327844D01*
X178003000Y-114072158D01*
X177969626Y-113818661D01*
X177903450Y-113571688D01*
X177805604Y-113335466D01*
X177805602Y-113335463D01*
X177805600Y-113335458D01*
X177677765Y-113114043D01*
X177677761Y-113114036D01*
X177522110Y-112911188D01*
X177522105Y-112911182D01*
X177341318Y-112730395D01*
X177341311Y-112730389D01*
X177138473Y-112574746D01*
X177138471Y-112574744D01*
X177138465Y-112574740D01*
X177138460Y-112574737D01*
X177138457Y-112574735D01*
X176917042Y-112446900D01*
X176917031Y-112446895D01*
X176729547Y-112369237D01*
X176675144Y-112325396D01*
X176653079Y-112259102D01*
X176653000Y-112254676D01*
X176653000Y-111345325D01*
X176672685Y-111278286D01*
X176725489Y-111232531D01*
X176729547Y-111230764D01*
X176775011Y-111211931D01*
X176917035Y-111153104D01*
X177138465Y-111025261D01*
X177341313Y-110869610D01*
X177522110Y-110688813D01*
X177677761Y-110485965D01*
X177797572Y-110278445D01*
X177805600Y-110264542D01*
X177805600Y-110264541D01*
X177805604Y-110264535D01*
X177903450Y-110028313D01*
X177969626Y-109781340D01*
X178003000Y-109527843D01*
X178003000Y-109272157D01*
X177969626Y-109018660D01*
X177903450Y-108771687D01*
X177805604Y-108535465D01*
X177805602Y-108535462D01*
X177805600Y-108535457D01*
X177677765Y-108314042D01*
X177677761Y-108314035D01*
X177522110Y-108111187D01*
X177522105Y-108111181D01*
X177341318Y-107930394D01*
X177341311Y-107930388D01*
X177138473Y-107774745D01*
X177138471Y-107774743D01*
X177138465Y-107774739D01*
X177138460Y-107774736D01*
X177138457Y-107774734D01*
X176917042Y-107646899D01*
X176917031Y-107646894D01*
X176680822Y-107549053D01*
X176680815Y-107549051D01*
X176680813Y-107549050D01*
X176433840Y-107482874D01*
X176377507Y-107475457D01*
X176180350Y-107449500D01*
X176180343Y-107449500D01*
X175924657Y-107449500D01*
X175924649Y-107449500D01*
X175699326Y-107479165D01*
X175671160Y-107482874D01*
X175424187Y-107549050D01*
X175424177Y-107549053D01*
X175187968Y-107646894D01*
X175187957Y-107646899D01*
X174966542Y-107774734D01*
X174966526Y-107774745D01*
X174763688Y-107930388D01*
X174763681Y-107930394D01*
X174582894Y-108111181D01*
X174582888Y-108111188D01*
X174424768Y-108317255D01*
X174423899Y-108316588D01*
X174373979Y-108358300D01*
X174304653Y-108367001D01*
X174241629Y-108336841D01*
X174204915Y-108277394D01*
X174200500Y-108244600D01*
X174200500Y-105755398D01*
X174220185Y-105688359D01*
X174272989Y-105642604D01*
X174342147Y-105632660D01*
X174405703Y-105661685D01*
X174424477Y-105682966D01*
X174424768Y-105682744D01*
X174582888Y-105888810D01*
X174582894Y-105888817D01*
X174763681Y-106069604D01*
X174763687Y-106069609D01*
X174966535Y-106225260D01*
X174966542Y-106225264D01*
X175187957Y-106353099D01*
X175187962Y-106353101D01*
X175187965Y-106353103D01*
X175424187Y-106450949D01*
X175671160Y-106517125D01*
X175924657Y-106550499D01*
X175924664Y-106550499D01*
X176180336Y-106550499D01*
X176180343Y-106550499D01*
X176433840Y-106517125D01*
X176680813Y-106450949D01*
X176917035Y-106353103D01*
X177138465Y-106225260D01*
X177341313Y-106069609D01*
X177522110Y-105888812D01*
X177677761Y-105685964D01*
X177805604Y-105464534D01*
X177903450Y-105228312D01*
X177969626Y-104981339D01*
X178003000Y-104727842D01*
X178003000Y-104472156D01*
X177969626Y-104218659D01*
X177903450Y-103971686D01*
X177897564Y-103957477D01*
X177867305Y-103884425D01*
X177805604Y-103735464D01*
X177805602Y-103735461D01*
X177805600Y-103735456D01*
X177677765Y-103514041D01*
X177677761Y-103514034D01*
X177624482Y-103444599D01*
X177522111Y-103311187D01*
X177522105Y-103311180D01*
X177341318Y-103130393D01*
X177341311Y-103130387D01*
X177138473Y-102974744D01*
X177138471Y-102974742D01*
X177138465Y-102974738D01*
X177138460Y-102974735D01*
X177138457Y-102974733D01*
X176917042Y-102846898D01*
X176917031Y-102846893D01*
X176680822Y-102749052D01*
X176680815Y-102749050D01*
X176680813Y-102749049D01*
X176433840Y-102682873D01*
X176377507Y-102675456D01*
X176180350Y-102649499D01*
X176180343Y-102649499D01*
X175924657Y-102649499D01*
X175924649Y-102649499D01*
X175699326Y-102679164D01*
X175671160Y-102682873D01*
X175424187Y-102749049D01*
X175424177Y-102749052D01*
X175187968Y-102846893D01*
X175187957Y-102846898D01*
X174966542Y-102974733D01*
X174966526Y-102974744D01*
X174763688Y-103130387D01*
X174763681Y-103130393D01*
X174582894Y-103311180D01*
X174582888Y-103311187D01*
X174424768Y-103517254D01*
X174423899Y-103516587D01*
X174373979Y-103558299D01*
X174304653Y-103567000D01*
X174241629Y-103536840D01*
X174204915Y-103477393D01*
X174200500Y-103444599D01*
X174200500Y-98700097D01*
X174209144Y-98670656D01*
X174215668Y-98640670D01*
X174219422Y-98635654D01*
X174220185Y-98633058D01*
X174236819Y-98612416D01*
X176412416Y-96436819D01*
X176473739Y-96403334D01*
X176500097Y-96400500D01*
X178843001Y-96400500D01*
X178910040Y-96420185D01*
X178955795Y-96472989D01*
X178967001Y-96524500D01*
X178967001Y-96600018D01*
X178977500Y-96702796D01*
X178977501Y-96702799D01*
X179032685Y-96869331D01*
X179032687Y-96869336D01*
X179124789Y-97018657D01*
X179248844Y-97142712D01*
X179404058Y-97238448D01*
X179450783Y-97290396D01*
X179462006Y-97359358D01*
X179434163Y-97423441D01*
X179426644Y-97431668D01*
X179287771Y-97570541D01*
X179162879Y-97742442D01*
X179066404Y-97931782D01*
X179000742Y-98133870D01*
X179000742Y-98133873D01*
X178990269Y-98200000D01*
X180034488Y-98200000D01*
X180001575Y-98257007D01*
X179967500Y-98384174D01*
X179967500Y-98515826D01*
X180001575Y-98642993D01*
X180034488Y-98700000D01*
X178990269Y-98700000D01*
X179000742Y-98766126D01*
X179000742Y-98766129D01*
X179066404Y-98968217D01*
X179162879Y-99157557D01*
X179287772Y-99329459D01*
X179287776Y-99329464D01*
X179438035Y-99479723D01*
X179438040Y-99479727D01*
X179609942Y-99604620D01*
X179799282Y-99701095D01*
X180001370Y-99766757D01*
X180211254Y-99800000D01*
X180217500Y-99800000D01*
X180217500Y-98883012D01*
X180274507Y-98915925D01*
X180401674Y-98950000D01*
X180533326Y-98950000D01*
X180660493Y-98915925D01*
X180717500Y-98883012D01*
X180717500Y-99800000D01*
X180723746Y-99800000D01*
X180933627Y-99766757D01*
X180933630Y-99766757D01*
X181135717Y-99701095D01*
X181325057Y-99604620D01*
X181496959Y-99479727D01*
X181496964Y-99479723D01*
X181647223Y-99329464D01*
X181647227Y-99329459D01*
X181772120Y-99157557D01*
X181868595Y-98968217D01*
X181934257Y-98766129D01*
X181934257Y-98766126D01*
X181944731Y-98700000D01*
X180900512Y-98700000D01*
X180933425Y-98642993D01*
X180967500Y-98515826D01*
X180967500Y-98384174D01*
X180933425Y-98257007D01*
X180900512Y-98200000D01*
X181944731Y-98200000D01*
X181934257Y-98133873D01*
X181934257Y-98133870D01*
X181868595Y-97931782D01*
X181772120Y-97742442D01*
X181647227Y-97570540D01*
X181647223Y-97570535D01*
X181508356Y-97431668D01*
X181474871Y-97370345D01*
X181479855Y-97300653D01*
X181521727Y-97244720D01*
X181530941Y-97238448D01*
X181536831Y-97234814D01*
X181536834Y-97234814D01*
X181686156Y-97142712D01*
X181810212Y-97018656D01*
X181902314Y-96869334D01*
X181957499Y-96702797D01*
X181968000Y-96600009D01*
X181967999Y-95299992D01*
X181957499Y-95197203D01*
X181902314Y-95030666D01*
X181810212Y-94881344D01*
X181686156Y-94757288D01*
X181536834Y-94665186D01*
X181370297Y-94610001D01*
X181370295Y-94610000D01*
X181267516Y-94599500D01*
X181267509Y-94599500D01*
X180017597Y-94599500D01*
X179950558Y-94579815D01*
X179929916Y-94563181D01*
X176065278Y-90698543D01*
X177899499Y-90698543D01*
X177937947Y-90891829D01*
X177937950Y-90891839D01*
X178013364Y-91073907D01*
X178013371Y-91073920D01*
X178122860Y-91237781D01*
X178122863Y-91237785D01*
X178262214Y-91377136D01*
X178262218Y-91377139D01*
X178426079Y-91486628D01*
X178426092Y-91486635D01*
X178592523Y-91555572D01*
X178608165Y-91562051D01*
X178608169Y-91562051D01*
X178608170Y-91562052D01*
X178801456Y-91600500D01*
X178801459Y-91600500D01*
X179998543Y-91600500D01*
X180128582Y-91574632D01*
X180191835Y-91562051D01*
X180373914Y-91486632D01*
X180537782Y-91377139D01*
X180677139Y-91237782D01*
X180786632Y-91073914D01*
X180862051Y-90891835D01*
X180874632Y-90828582D01*
X180900500Y-90698543D01*
X180900500Y-90501456D01*
X180898960Y-90493713D01*
X183049500Y-90493713D01*
X183049500Y-90706286D01*
X183078888Y-90891839D01*
X183082754Y-90916243D01*
X183133982Y-91073907D01*
X183148444Y-91118414D01*
X183244951Y-91307820D01*
X183369890Y-91479786D01*
X183520213Y-91630109D01*
X183692179Y-91755048D01*
X183692181Y-91755049D01*
X183692184Y-91755051D01*
X183881588Y-91851557D01*
X184083757Y-91917246D01*
X184293713Y-91950500D01*
X184293714Y-91950500D01*
X184506286Y-91950500D01*
X184506287Y-91950500D01*
X184716243Y-91917246D01*
X184918412Y-91851557D01*
X185107816Y-91755051D01*
X185176519Y-91705136D01*
X185279786Y-91630109D01*
X185279788Y-91630106D01*
X185279792Y-91630104D01*
X185430104Y-91479792D01*
X185430106Y-91479788D01*
X185430109Y-91479786D01*
X185555048Y-91307820D01*
X185555047Y-91307820D01*
X185555051Y-91307816D01*
X185651557Y-91118412D01*
X185717246Y-90916243D01*
X185750500Y-90706287D01*
X185750500Y-90493713D01*
X185717246Y-90283757D01*
X185651557Y-90081588D01*
X185555051Y-89892184D01*
X185555049Y-89892181D01*
X185555048Y-89892179D01*
X185430109Y-89720213D01*
X185279786Y-89569890D01*
X185107820Y-89444951D01*
X184918414Y-89348444D01*
X184918413Y-89348443D01*
X184918412Y-89348443D01*
X184716243Y-89282754D01*
X184716241Y-89282753D01*
X184716240Y-89282753D01*
X184554957Y-89257208D01*
X184506287Y-89249500D01*
X184293713Y-89249500D01*
X184245042Y-89257208D01*
X184083760Y-89282753D01*
X183881585Y-89348444D01*
X183692179Y-89444951D01*
X183520213Y-89569890D01*
X183369890Y-89720213D01*
X183244951Y-89892179D01*
X183148444Y-90081585D01*
X183082753Y-90283760D01*
X183049500Y-90493713D01*
X180898960Y-90493713D01*
X180862052Y-90308170D01*
X180862051Y-90308169D01*
X180862051Y-90308165D01*
X180806839Y-90174870D01*
X180786635Y-90126092D01*
X180786628Y-90126079D01*
X180677139Y-89962218D01*
X180677136Y-89962214D01*
X180537785Y-89822863D01*
X180537781Y-89822860D01*
X180373920Y-89713371D01*
X180373907Y-89713364D01*
X180191839Y-89637950D01*
X180191829Y-89637947D01*
X179998543Y-89599500D01*
X179998541Y-89599500D01*
X178801459Y-89599500D01*
X178801457Y-89599500D01*
X178608170Y-89637947D01*
X178608160Y-89637950D01*
X178426092Y-89713364D01*
X178426079Y-89713371D01*
X178262218Y-89822860D01*
X178262214Y-89822863D01*
X178122863Y-89962214D01*
X178122860Y-89962218D01*
X178013371Y-90126079D01*
X178013364Y-90126092D01*
X177937950Y-90308160D01*
X177937947Y-90308170D01*
X177899500Y-90501456D01*
X177899500Y-90501459D01*
X177899500Y-90698541D01*
X177899500Y-90698543D01*
X177899499Y-90698543D01*
X176065278Y-90698543D01*
X173565278Y-88198543D01*
X177899499Y-88198543D01*
X177937947Y-88391829D01*
X177937950Y-88391839D01*
X178013364Y-88573907D01*
X178013371Y-88573920D01*
X178122860Y-88737781D01*
X178122863Y-88737785D01*
X178262214Y-88877136D01*
X178262218Y-88877139D01*
X178426079Y-88986628D01*
X178426092Y-88986635D01*
X178547249Y-89036819D01*
X178608165Y-89062051D01*
X178608169Y-89062051D01*
X178608170Y-89062052D01*
X178801456Y-89100500D01*
X178801459Y-89100500D01*
X179998543Y-89100500D01*
X180128582Y-89074632D01*
X180191835Y-89062051D01*
X180373914Y-88986632D01*
X180537782Y-88877139D01*
X180677139Y-88737782D01*
X180786632Y-88573914D01*
X180862051Y-88391835D01*
X180900500Y-88198541D01*
X180900500Y-88001459D01*
X180900500Y-88001456D01*
X180862052Y-87808170D01*
X180862051Y-87808169D01*
X180862051Y-87808165D01*
X180858462Y-87799500D01*
X180786635Y-87626092D01*
X180786628Y-87626079D01*
X180677139Y-87462218D01*
X180677136Y-87462214D01*
X180537785Y-87322863D01*
X180537781Y-87322860D01*
X180373920Y-87213371D01*
X180373907Y-87213364D01*
X180191839Y-87137950D01*
X180191829Y-87137947D01*
X179998543Y-87099500D01*
X179998541Y-87099500D01*
X179938226Y-87099500D01*
X179871187Y-87079815D01*
X179825432Y-87027011D01*
X179815488Y-86957853D01*
X179844513Y-86894297D01*
X179899906Y-86857569D01*
X179918412Y-86851557D01*
X180107816Y-86755051D01*
X180132025Y-86737462D01*
X180279786Y-86630109D01*
X180279788Y-86630106D01*
X180279792Y-86630104D01*
X180430104Y-86479792D01*
X180430106Y-86479788D01*
X180430109Y-86479786D01*
X180555048Y-86307820D01*
X180555047Y-86307820D01*
X180555051Y-86307816D01*
X180610753Y-86198495D01*
X182900000Y-86198495D01*
X182938427Y-86391681D01*
X182938430Y-86391693D01*
X183013807Y-86573671D01*
X183013814Y-86573684D01*
X183123248Y-86737462D01*
X183123251Y-86737466D01*
X183262533Y-86876748D01*
X183262537Y-86876751D01*
X183426315Y-86986185D01*
X183426328Y-86986192D01*
X183608308Y-87061569D01*
X183650000Y-87069862D01*
X184150000Y-87069862D01*
X184191690Y-87061569D01*
X184191692Y-87061569D01*
X184373671Y-86986192D01*
X184373684Y-86986185D01*
X184537462Y-86876751D01*
X184537466Y-86876748D01*
X184676748Y-86737466D01*
X184676751Y-86737462D01*
X184786185Y-86573684D01*
X184786192Y-86573671D01*
X184861569Y-86391693D01*
X184861572Y-86391681D01*
X184899999Y-86198495D01*
X184900000Y-86198492D01*
X184900000Y-85850000D01*
X184150000Y-85850000D01*
X184150000Y-87069862D01*
X183650000Y-87069862D01*
X183650000Y-85850000D01*
X182900000Y-85850000D01*
X182900000Y-86198495D01*
X180610753Y-86198495D01*
X180651557Y-86118412D01*
X180717246Y-85916243D01*
X180750500Y-85706287D01*
X180750500Y-85493713D01*
X180717246Y-85283757D01*
X180651557Y-85081588D01*
X180641293Y-85061443D01*
X180636336Y-85051713D01*
X180636335Y-85051712D01*
X180610752Y-85001504D01*
X182900000Y-85001504D01*
X182900000Y-85350000D01*
X183650000Y-85350000D01*
X183650000Y-85130240D01*
X183675007Y-85130240D01*
X183675007Y-86069760D01*
X183709260Y-86152454D01*
X183772552Y-86215746D01*
X183855246Y-86249999D01*
X183944754Y-86249999D01*
X184027448Y-86215746D01*
X184090740Y-86152454D01*
X184124993Y-86069760D01*
X184124993Y-85350000D01*
X184150000Y-85350000D01*
X184900000Y-85350000D01*
X184900000Y-85001508D01*
X184899999Y-85001504D01*
X184861572Y-84808318D01*
X184861569Y-84808306D01*
X184786192Y-84626328D01*
X184786185Y-84626315D01*
X184676751Y-84462537D01*
X184676748Y-84462533D01*
X184537466Y-84323251D01*
X184537462Y-84323248D01*
X184373684Y-84213814D01*
X184373671Y-84213807D01*
X184191691Y-84138429D01*
X184191683Y-84138427D01*
X184150000Y-84130135D01*
X184150000Y-85350000D01*
X184124993Y-85350000D01*
X184124993Y-85130240D01*
X184090740Y-85047546D01*
X184027448Y-84984254D01*
X183944754Y-84950001D01*
X183855246Y-84950001D01*
X183772552Y-84984254D01*
X183709260Y-85047546D01*
X183675007Y-85130240D01*
X183650000Y-85130240D01*
X183650000Y-84130136D01*
X183649999Y-84130135D01*
X183608316Y-84138427D01*
X183608308Y-84138429D01*
X183426328Y-84213807D01*
X183426315Y-84213814D01*
X183262537Y-84323248D01*
X183262533Y-84323251D01*
X183123251Y-84462533D01*
X183123248Y-84462537D01*
X183013814Y-84626315D01*
X183013807Y-84626328D01*
X182938430Y-84808306D01*
X182938427Y-84808318D01*
X182900000Y-85001504D01*
X180610752Y-85001504D01*
X180598287Y-84977040D01*
X180555051Y-84892184D01*
X180527728Y-84854577D01*
X180430109Y-84720213D01*
X180279786Y-84569890D01*
X180107820Y-84444951D01*
X179918414Y-84348444D01*
X179918413Y-84348443D01*
X179918412Y-84348443D01*
X179898367Y-84341930D01*
X179840694Y-84302494D01*
X179813495Y-84238135D01*
X179825410Y-84169289D01*
X179872654Y-84117813D01*
X179936687Y-84100000D01*
X179998492Y-84100000D01*
X179998495Y-84099999D01*
X180191681Y-84061572D01*
X180191693Y-84061569D01*
X180373671Y-83986192D01*
X180373684Y-83986185D01*
X180537462Y-83876751D01*
X180537466Y-83876748D01*
X180676748Y-83737466D01*
X180676751Y-83737462D01*
X180786185Y-83573684D01*
X180786192Y-83573671D01*
X180861569Y-83391692D01*
X180861569Y-83391690D01*
X180869862Y-83350000D01*
X179849759Y-83350000D01*
X179941620Y-83311950D01*
X180011950Y-83241620D01*
X180050012Y-83149730D01*
X180050012Y-83050270D01*
X180011950Y-82958380D01*
X179941620Y-82888050D01*
X179849759Y-82850000D01*
X180869862Y-82850000D01*
X180861569Y-82808309D01*
X180861569Y-82808307D01*
X180786192Y-82626328D01*
X180786185Y-82626315D01*
X180676751Y-82462537D01*
X180676748Y-82462533D01*
X180537466Y-82323251D01*
X180537462Y-82323248D01*
X180373684Y-82213814D01*
X180373671Y-82213807D01*
X180191693Y-82138430D01*
X180191681Y-82138427D01*
X179998495Y-82100000D01*
X179650000Y-82100000D01*
X179650000Y-82849988D01*
X179150000Y-82849988D01*
X179150000Y-82100000D01*
X178801504Y-82100000D01*
X178608318Y-82138427D01*
X178608306Y-82138430D01*
X178426328Y-82213807D01*
X178426315Y-82213814D01*
X178262537Y-82323248D01*
X178262533Y-82323251D01*
X178123251Y-82462533D01*
X178123248Y-82462537D01*
X178013814Y-82626315D01*
X178013807Y-82626328D01*
X177938430Y-82808307D01*
X177938430Y-82808309D01*
X177930138Y-82850000D01*
X178950241Y-82850000D01*
X178858380Y-82888050D01*
X178788050Y-82958380D01*
X178749988Y-83050270D01*
X178749988Y-83149730D01*
X178788050Y-83241620D01*
X178858380Y-83311950D01*
X178950241Y-83350000D01*
X177930138Y-83350000D01*
X177938430Y-83391690D01*
X177938430Y-83391692D01*
X178013807Y-83573671D01*
X178013814Y-83573684D01*
X178123248Y-83737462D01*
X178123251Y-83737466D01*
X178262533Y-83876748D01*
X178262537Y-83876751D01*
X178426315Y-83986185D01*
X178426328Y-83986192D01*
X178608306Y-84061569D01*
X178608318Y-84061572D01*
X178801504Y-84099999D01*
X178801508Y-84100000D01*
X178863313Y-84100000D01*
X178930352Y-84119685D01*
X178976107Y-84172489D01*
X178986051Y-84241647D01*
X178957026Y-84305203D01*
X178901632Y-84341930D01*
X178881588Y-84348443D01*
X178881585Y-84348444D01*
X178692179Y-84444951D01*
X178520213Y-84569890D01*
X178369890Y-84720213D01*
X178244951Y-84892179D01*
X178148444Y-85081585D01*
X178082753Y-85283760D01*
X178049500Y-85493713D01*
X178049500Y-85706286D01*
X178082753Y-85916239D01*
X178148444Y-86118414D01*
X178244951Y-86307820D01*
X178369890Y-86479786D01*
X178520213Y-86630109D01*
X178692179Y-86755048D01*
X178692181Y-86755049D01*
X178692184Y-86755051D01*
X178881588Y-86851557D01*
X178900092Y-86857569D01*
X178957768Y-86897006D01*
X178984966Y-86961365D01*
X178973051Y-87030211D01*
X178925807Y-87081687D01*
X178861774Y-87099500D01*
X178801457Y-87099500D01*
X178608170Y-87137947D01*
X178608160Y-87137950D01*
X178426092Y-87213364D01*
X178426079Y-87213371D01*
X178262218Y-87322860D01*
X178262214Y-87322863D01*
X178122863Y-87462214D01*
X178122860Y-87462218D01*
X178013371Y-87626079D01*
X178013364Y-87626092D01*
X177937950Y-87808160D01*
X177937947Y-87808170D01*
X177899500Y-88001456D01*
X177899500Y-88001459D01*
X177899500Y-88198541D01*
X177899500Y-88198543D01*
X177899499Y-88198543D01*
X173565278Y-88198543D01*
X165716735Y-80350000D01*
X177930138Y-80350000D01*
X178950241Y-80350000D01*
X178858380Y-80388050D01*
X178788050Y-80458380D01*
X178749988Y-80550270D01*
X178749988Y-80649730D01*
X178788050Y-80741620D01*
X178858380Y-80811950D01*
X178950241Y-80850000D01*
X177930138Y-80850000D01*
X177938430Y-80891690D01*
X177938430Y-80891692D01*
X178013807Y-81073671D01*
X178013814Y-81073684D01*
X178123248Y-81237462D01*
X178123251Y-81237466D01*
X178262533Y-81376748D01*
X178262537Y-81376751D01*
X178426315Y-81486185D01*
X178426328Y-81486192D01*
X178608306Y-81561569D01*
X178608318Y-81561572D01*
X178801504Y-81599999D01*
X178801508Y-81600000D01*
X179150000Y-81600000D01*
X179150000Y-80850012D01*
X179650000Y-80850012D01*
X179650000Y-81600000D01*
X179998492Y-81600000D01*
X179998495Y-81599999D01*
X180191681Y-81561572D01*
X180191693Y-81561569D01*
X180373671Y-81486192D01*
X180373684Y-81486185D01*
X180537462Y-81376751D01*
X180537466Y-81376748D01*
X180676748Y-81237466D01*
X180676751Y-81237462D01*
X180786185Y-81073684D01*
X180786192Y-81073671D01*
X180861569Y-80891692D01*
X180861569Y-80891690D01*
X180869862Y-80850000D01*
X179849759Y-80850000D01*
X179941620Y-80811950D01*
X180011950Y-80741620D01*
X180050012Y-80649730D01*
X180050012Y-80550270D01*
X180011950Y-80458380D01*
X179941620Y-80388050D01*
X179849759Y-80350000D01*
X180869862Y-80350000D01*
X180861569Y-80308309D01*
X180861569Y-80308307D01*
X180786192Y-80126328D01*
X180786185Y-80126315D01*
X180676751Y-79962537D01*
X180676748Y-79962533D01*
X180537466Y-79823251D01*
X180537462Y-79823248D01*
X180373684Y-79713814D01*
X180373671Y-79713807D01*
X180191693Y-79638430D01*
X180191681Y-79638427D01*
X179998495Y-79600000D01*
X179650000Y-79600000D01*
X179650000Y-80349988D01*
X179150000Y-80349988D01*
X179150000Y-79600000D01*
X178801504Y-79600000D01*
X178608318Y-79638427D01*
X178608306Y-79638430D01*
X178426328Y-79713807D01*
X178426315Y-79713814D01*
X178262537Y-79823248D01*
X178262533Y-79823251D01*
X178123251Y-79962533D01*
X178123248Y-79962537D01*
X178013814Y-80126315D01*
X178013807Y-80126328D01*
X177938430Y-80308307D01*
X177938430Y-80308309D01*
X177930138Y-80350000D01*
X165716735Y-80350000D01*
X162826303Y-77459568D01*
X166162000Y-77459568D01*
X166162000Y-77740431D01*
X166193442Y-78019494D01*
X166193445Y-78019512D01*
X166255939Y-78293317D01*
X166255943Y-78293329D01*
X166348700Y-78558411D01*
X166470553Y-78811442D01*
X166470555Y-78811445D01*
X166619977Y-79049248D01*
X166795084Y-79268825D01*
X166993675Y-79467416D01*
X167213252Y-79642523D01*
X167451055Y-79791945D01*
X167704092Y-79913801D01*
X167903180Y-79983465D01*
X167969170Y-80006556D01*
X167969182Y-80006560D01*
X168242991Y-80069055D01*
X168242997Y-80069055D01*
X168243005Y-80069057D01*
X168429047Y-80090018D01*
X168522069Y-80100499D01*
X168522072Y-80100500D01*
X168522075Y-80100500D01*
X168802928Y-80100500D01*
X168802929Y-80100499D01*
X168970775Y-80081588D01*
X169081994Y-80069057D01*
X169081999Y-80069056D01*
X169082009Y-80069055D01*
X169355818Y-80006560D01*
X169620908Y-79913801D01*
X169873945Y-79791945D01*
X170111748Y-79642523D01*
X170331325Y-79467416D01*
X170529916Y-79268825D01*
X170705023Y-79049248D01*
X170854445Y-78811445D01*
X170976301Y-78558408D01*
X171069060Y-78293318D01*
X171131555Y-78019509D01*
X171132520Y-78010951D01*
X171162999Y-77740431D01*
X171163000Y-77740427D01*
X171163000Y-77459572D01*
X171162999Y-77459568D01*
X171158044Y-77415594D01*
X171149361Y-77338525D01*
X171131557Y-77180505D01*
X171131554Y-77180487D01*
X171125855Y-77155520D01*
X171069060Y-76906682D01*
X171047679Y-76845580D01*
X171027690Y-76788453D01*
X170976301Y-76641592D01*
X170854445Y-76388555D01*
X170705023Y-76150752D01*
X170529916Y-75931175D01*
X170331325Y-75732584D01*
X170111748Y-75557477D01*
X169900867Y-75424971D01*
X169873942Y-75408053D01*
X169620911Y-75286200D01*
X169355829Y-75193443D01*
X169355817Y-75193439D01*
X169082012Y-75130945D01*
X169081994Y-75130942D01*
X168802931Y-75099500D01*
X168802925Y-75099500D01*
X168522075Y-75099500D01*
X168522068Y-75099500D01*
X168243005Y-75130942D01*
X168242987Y-75130945D01*
X167969182Y-75193439D01*
X167969170Y-75193443D01*
X167704088Y-75286200D01*
X167451057Y-75408053D01*
X167213253Y-75557476D01*
X166993675Y-75732583D01*
X166795083Y-75931175D01*
X166619976Y-76150753D01*
X166470553Y-76388557D01*
X166348700Y-76641588D01*
X166255943Y-76906670D01*
X166255939Y-76906682D01*
X166193445Y-77180487D01*
X166193442Y-77180505D01*
X166162000Y-77459568D01*
X162826303Y-77459568D01*
X160605090Y-75238355D01*
X160605088Y-75238352D01*
X160486217Y-75119481D01*
X160486212Y-75119477D01*
X160395690Y-75067215D01*
X160349285Y-75040423D01*
X160196557Y-74999499D01*
X160038443Y-74999499D01*
X160030847Y-74999499D01*
X160030831Y-74999500D01*
X154163443Y-74999500D01*
X154010714Y-75040423D01*
X153987512Y-75053819D01*
X153964310Y-75067215D01*
X153873787Y-75119477D01*
X153873782Y-75119481D01*
X153761978Y-75231286D01*
X152707182Y-76286081D01*
X152645859Y-76319566D01*
X152581183Y-76316331D01*
X152552890Y-76307138D01*
X152346824Y-76274500D01*
X152346819Y-76274500D01*
X152138181Y-76274500D01*
X152138176Y-76274500D01*
X151932110Y-76307138D01*
X151903813Y-76316332D01*
X151833972Y-76318326D01*
X151777816Y-76286081D01*
X150453916Y-74962181D01*
X150420431Y-74900858D01*
X150425415Y-74831166D01*
X150467287Y-74775233D01*
X150532751Y-74750816D01*
X150541597Y-74750500D01*
X183305319Y-74750500D01*
X183372358Y-74770185D01*
G37*
%TD.AperFunction*%
%TA.AperFunction,Conductor*%
G36*
X129149524Y-77235465D02*
G01*
X129199449Y-77265896D01*
X129755910Y-77822356D01*
X129657886Y-77848622D01*
X129562114Y-77903916D01*
X129483916Y-77982114D01*
X129428622Y-78077886D01*
X129402356Y-78175909D01*
X128830730Y-77604283D01*
X128830729Y-77604283D01*
X128815906Y-77624688D01*
X128815903Y-77624692D01*
X128732013Y-77789338D01*
X128674907Y-77965091D01*
X128646000Y-78147604D01*
X128646000Y-78332395D01*
X128674907Y-78514908D01*
X128732014Y-78690664D01*
X128815900Y-78855303D01*
X128815903Y-78855307D01*
X128830730Y-78875715D01*
X128830730Y-78875716D01*
X129402356Y-78304090D01*
X129428622Y-78402114D01*
X129483916Y-78497886D01*
X129562114Y-78576084D01*
X129657886Y-78631378D01*
X129755909Y-78657643D01*
X129184283Y-79229268D01*
X129184283Y-79229269D01*
X129204686Y-79244092D01*
X129369338Y-79327986D01*
X129545087Y-79385091D01*
X129558857Y-79387272D01*
X129621993Y-79417200D01*
X129658926Y-79476510D01*
X129657930Y-79546373D01*
X129619322Y-79604607D01*
X129558867Y-79632218D01*
X129544971Y-79634419D01*
X129369150Y-79691546D01*
X129369147Y-79691547D01*
X129204424Y-79775479D01*
X129054870Y-79884135D01*
X129054865Y-79884139D01*
X128924139Y-80014865D01*
X128924135Y-80014870D01*
X128815479Y-80164424D01*
X128731547Y-80329147D01*
X128731546Y-80329150D01*
X128674419Y-80504969D01*
X128645500Y-80687559D01*
X128645500Y-80872440D01*
X128674419Y-81055030D01*
X128731546Y-81230849D01*
X128731547Y-81230852D01*
X128770763Y-81307816D01*
X128805887Y-81376751D01*
X128815479Y-81395575D01*
X128924135Y-81545129D01*
X128924139Y-81545134D01*
X129054865Y-81675860D01*
X129054870Y-81675864D01*
X129163859Y-81755048D01*
X129204428Y-81784523D01*
X129312106Y-81839388D01*
X129369147Y-81868452D01*
X129369150Y-81868453D01*
X129445500Y-81893260D01*
X129544971Y-81925580D01*
X129555150Y-81927192D01*
X129557263Y-81927527D01*
X129620397Y-81957457D01*
X129657328Y-82016769D01*
X129656330Y-82086631D01*
X129617719Y-82144864D01*
X129557263Y-82172473D01*
X129544969Y-82174420D01*
X129369150Y-82231546D01*
X129369147Y-82231547D01*
X129204424Y-82315479D01*
X129054870Y-82424135D01*
X129054865Y-82424139D01*
X128924139Y-82554865D01*
X128924135Y-82554870D01*
X128815479Y-82704424D01*
X128731547Y-82869147D01*
X128731546Y-82869150D01*
X128674419Y-83044969D01*
X128645500Y-83227559D01*
X128645500Y-83412440D01*
X128667462Y-83551102D01*
X128658507Y-83620395D01*
X128613511Y-83673847D01*
X128546760Y-83694487D01*
X128544989Y-83694500D01*
X116224057Y-83694500D01*
X116065942Y-83694500D01*
X115913215Y-83735423D01*
X115913214Y-83735423D01*
X115913212Y-83735424D01*
X115913211Y-83735424D01*
X115905850Y-83739674D01*
X115837949Y-83756142D01*
X115771923Y-83733286D01*
X115728736Y-83678362D01*
X115722098Y-83608809D01*
X115724614Y-83599051D01*
X115725579Y-83595032D01*
X115725578Y-83595032D01*
X115725580Y-83595029D01*
X115737106Y-83522253D01*
X115754500Y-83412440D01*
X115754500Y-83227559D01*
X115725580Y-83044969D01*
X115668453Y-82869150D01*
X115668452Y-82869147D01*
X115637452Y-82808307D01*
X115584523Y-82704428D01*
X115570639Y-82685318D01*
X115475864Y-82554870D01*
X115475860Y-82554865D01*
X115345134Y-82424139D01*
X115345129Y-82424135D01*
X115195575Y-82315479D01*
X115195574Y-82315478D01*
X115195572Y-82315477D01*
X115142799Y-82288588D01*
X115030852Y-82231547D01*
X115030849Y-82231546D01*
X114855030Y-82174420D01*
X114842737Y-82172473D01*
X114779602Y-82142544D01*
X114742671Y-82083232D01*
X114743669Y-82013370D01*
X114782279Y-81955137D01*
X114842737Y-81927527D01*
X114844508Y-81927246D01*
X114855029Y-81925580D01*
X115030852Y-81868452D01*
X115195572Y-81784523D01*
X115345136Y-81675859D01*
X115475859Y-81545136D01*
X115584523Y-81395572D01*
X115668452Y-81230852D01*
X115725580Y-81055029D01*
X115747562Y-80916243D01*
X115754500Y-80872440D01*
X115754500Y-80687559D01*
X115725580Y-80504969D01*
X115668453Y-80329150D01*
X115668452Y-80329147D01*
X115639388Y-80272106D01*
X115584523Y-80164428D01*
X115556842Y-80126328D01*
X115475864Y-80014870D01*
X115475860Y-80014865D01*
X115345134Y-79884139D01*
X115345129Y-79884135D01*
X115195575Y-79775479D01*
X115195574Y-79775478D01*
X115195572Y-79775477D01*
X115142799Y-79748588D01*
X115030852Y-79691547D01*
X115030849Y-79691546D01*
X114855030Y-79634420D01*
X114842737Y-79632473D01*
X114779602Y-79602544D01*
X114742671Y-79543232D01*
X114743669Y-79473370D01*
X114782279Y-79415137D01*
X114842737Y-79387527D01*
X114844508Y-79387246D01*
X114855029Y-79385580D01*
X115030852Y-79328452D01*
X115195572Y-79244523D01*
X115345136Y-79135859D01*
X115475859Y-79005136D01*
X115584523Y-78855572D01*
X115668452Y-78690852D01*
X115694387Y-78611033D01*
X115725580Y-78515030D01*
X115754500Y-78332440D01*
X115754500Y-78147559D01*
X115725580Y-77964969D01*
X115668453Y-77789150D01*
X115668452Y-77789147D01*
X115608971Y-77672410D01*
X115584523Y-77624428D01*
X115553017Y-77581063D01*
X115474059Y-77472385D01*
X115450579Y-77406578D01*
X115466405Y-77338525D01*
X115516511Y-77289830D01*
X115574377Y-77275500D01*
X128758331Y-77275500D01*
X128758347Y-77275501D01*
X128765943Y-77275501D01*
X128924054Y-77275501D01*
X128924057Y-77275501D01*
X129076785Y-77234577D01*
X129076787Y-77234575D01*
X129079674Y-77233802D01*
X129149524Y-77235465D01*
G37*
%TD.AperFunction*%
%TA.AperFunction,Conductor*%
G36*
X136329894Y-75919185D02*
G01*
X136375649Y-75971989D01*
X136385593Y-76041147D01*
X136359802Y-76100813D01*
X136319976Y-76150753D01*
X136170553Y-76388557D01*
X136048700Y-76641588D01*
X135955943Y-76906670D01*
X135955939Y-76906682D01*
X135893445Y-77180487D01*
X135893442Y-77180505D01*
X135862000Y-77459568D01*
X135862000Y-77740431D01*
X135893442Y-78019494D01*
X135893445Y-78019512D01*
X135955939Y-78293317D01*
X135955943Y-78293329D01*
X136048700Y-78558411D01*
X136170553Y-78811442D01*
X136170555Y-78811445D01*
X136319977Y-79049248D01*
X136495084Y-79268825D01*
X136693675Y-79467416D01*
X136913252Y-79642523D01*
X137151055Y-79791945D01*
X137404092Y-79913801D01*
X137603180Y-79983465D01*
X137669170Y-80006556D01*
X137669182Y-80006560D01*
X137942991Y-80069055D01*
X137942997Y-80069055D01*
X137943005Y-80069057D01*
X138129047Y-80090018D01*
X138222069Y-80100499D01*
X138222072Y-80100500D01*
X138222075Y-80100500D01*
X138502928Y-80100500D01*
X138502929Y-80100499D01*
X138670775Y-80081588D01*
X138781994Y-80069057D01*
X138781999Y-80069056D01*
X138782009Y-80069055D01*
X139055818Y-80006560D01*
X139320908Y-79913801D01*
X139573945Y-79791945D01*
X139811748Y-79642523D01*
X140031325Y-79467416D01*
X140229916Y-79268825D01*
X140405023Y-79049248D01*
X140554445Y-78811445D01*
X140676301Y-78558408D01*
X140769060Y-78293318D01*
X140831555Y-78019509D01*
X140832520Y-78010951D01*
X140862999Y-77740431D01*
X140863000Y-77740427D01*
X140863000Y-77459572D01*
X140862999Y-77459568D01*
X140858044Y-77415594D01*
X140849361Y-77338525D01*
X140831557Y-77180505D01*
X140831554Y-77180487D01*
X140825855Y-77155520D01*
X140769060Y-76906682D01*
X140747679Y-76845580D01*
X140727690Y-76788453D01*
X140676301Y-76641592D01*
X140554445Y-76388555D01*
X140405023Y-76150752D01*
X140365198Y-76100813D01*
X140338789Y-76036126D01*
X140351546Y-75967430D01*
X140399416Y-75916537D01*
X140462145Y-75899500D01*
X149641403Y-75899500D01*
X149670843Y-75908144D01*
X149700830Y-75914668D01*
X149705845Y-75918422D01*
X149708442Y-75919185D01*
X149729084Y-75935819D01*
X149856584Y-76063319D01*
X149890069Y-76124642D01*
X149885085Y-76194334D01*
X149843213Y-76250267D01*
X149777749Y-76274684D01*
X149768903Y-76275000D01*
X149598221Y-76275000D01*
X149392227Y-76307626D01*
X149193872Y-76372075D01*
X149008052Y-76466757D01*
X148958680Y-76502627D01*
X149532255Y-77076202D01*
X149490203Y-77087470D01*
X149364785Y-77159881D01*
X149262381Y-77262285D01*
X149189970Y-77387703D01*
X149178702Y-77429755D01*
X148605127Y-76856180D01*
X148569257Y-76905552D01*
X148474575Y-77091372D01*
X148410126Y-77289727D01*
X148377500Y-77495720D01*
X148377500Y-77704279D01*
X148410126Y-77910272D01*
X148474575Y-78108627D01*
X148569259Y-78294451D01*
X148605127Y-78343818D01*
X148605127Y-78343819D01*
X149178702Y-77770244D01*
X149189970Y-77812297D01*
X149262381Y-77937715D01*
X149364785Y-78040119D01*
X149490203Y-78112530D01*
X149532254Y-78123797D01*
X148958679Y-78697371D01*
X148958680Y-78697372D01*
X149008043Y-78733236D01*
X149008056Y-78733244D01*
X149193872Y-78827924D01*
X149392227Y-78892373D01*
X149598221Y-78925000D01*
X149806779Y-78925000D01*
X150012772Y-78892373D01*
X150211127Y-78827924D01*
X150396951Y-78733240D01*
X150446318Y-78697372D01*
X150446318Y-78697371D01*
X149872744Y-78123797D01*
X149914797Y-78112530D01*
X150040215Y-78040119D01*
X150142619Y-77937715D01*
X150215030Y-77812297D01*
X150226297Y-77770244D01*
X150799871Y-78343818D01*
X150799872Y-78343818D01*
X150835742Y-78294449D01*
X150835742Y-78294448D01*
X150861733Y-78243438D01*
X150909706Y-78192642D01*
X150977527Y-78175846D01*
X151043662Y-78198383D01*
X151082703Y-78243437D01*
X151108830Y-78294714D01*
X151231465Y-78463505D01*
X151378995Y-78611035D01*
X151547786Y-78733670D01*
X151635616Y-78778421D01*
X151733679Y-78828387D01*
X151733681Y-78828387D01*
X151733684Y-78828389D01*
X151817354Y-78855575D01*
X151932110Y-78892862D01*
X152138176Y-78925500D01*
X152308401Y-78925500D01*
X152375440Y-78945185D01*
X152421195Y-78997989D01*
X152431139Y-79067147D01*
X152402114Y-79130703D01*
X152396082Y-79137181D01*
X147875084Y-83658181D01*
X147813761Y-83691666D01*
X147787403Y-83694500D01*
X131095011Y-83694500D01*
X131027972Y-83674815D01*
X130982217Y-83622011D01*
X130972273Y-83552853D01*
X130972538Y-83551102D01*
X130994500Y-83412440D01*
X130994500Y-83227559D01*
X130965580Y-83044969D01*
X130908453Y-82869150D01*
X130908452Y-82869147D01*
X130877452Y-82808307D01*
X130824523Y-82704428D01*
X130810639Y-82685318D01*
X130715864Y-82554870D01*
X130715860Y-82554865D01*
X130585134Y-82424139D01*
X130585129Y-82424135D01*
X130435575Y-82315479D01*
X130435574Y-82315478D01*
X130435572Y-82315477D01*
X130382799Y-82288588D01*
X130270852Y-82231547D01*
X130270849Y-82231546D01*
X130095030Y-82174420D01*
X130082737Y-82172473D01*
X130019602Y-82142544D01*
X129982671Y-82083232D01*
X129983669Y-82013370D01*
X130022279Y-81955137D01*
X130082737Y-81927527D01*
X130084508Y-81927246D01*
X130095029Y-81925580D01*
X130270852Y-81868452D01*
X130435572Y-81784523D01*
X130585136Y-81675859D01*
X130715859Y-81545136D01*
X130824523Y-81395572D01*
X130908452Y-81230852D01*
X130965580Y-81055029D01*
X130987562Y-80916243D01*
X130994500Y-80872440D01*
X130994500Y-80687559D01*
X130965580Y-80504969D01*
X130908453Y-80329150D01*
X130908452Y-80329147D01*
X130879388Y-80272106D01*
X130824523Y-80164428D01*
X130796842Y-80126328D01*
X130715864Y-80014870D01*
X130715860Y-80014865D01*
X130585134Y-79884139D01*
X130585129Y-79884135D01*
X130435575Y-79775479D01*
X130435574Y-79775478D01*
X130435572Y-79775477D01*
X130382799Y-79748588D01*
X130270852Y-79691547D01*
X130270849Y-79691546D01*
X130095033Y-79634421D01*
X130095031Y-79634420D01*
X130095029Y-79634420D01*
X130082736Y-79632473D01*
X130081133Y-79632219D01*
X130018000Y-79602287D01*
X129981071Y-79542974D01*
X129982071Y-79473111D01*
X130020683Y-79414880D01*
X130081143Y-79387272D01*
X130094911Y-79385091D01*
X130270661Y-79327986D01*
X130435310Y-79244094D01*
X130455715Y-79229268D01*
X130455716Y-79229268D01*
X129884090Y-78657642D01*
X129982114Y-78631378D01*
X130077886Y-78576084D01*
X130156084Y-78497886D01*
X130211378Y-78402114D01*
X130237642Y-78304090D01*
X130809268Y-78875716D01*
X130809268Y-78875715D01*
X130824094Y-78855310D01*
X130907986Y-78690661D01*
X130965092Y-78514908D01*
X130994000Y-78332395D01*
X130994000Y-78147604D01*
X130965092Y-77965091D01*
X130907986Y-77789338D01*
X130824092Y-77624686D01*
X130809269Y-77604283D01*
X130237642Y-78175909D01*
X130211378Y-78077886D01*
X130156084Y-77982114D01*
X130077886Y-77903916D01*
X129982114Y-77848622D01*
X129884090Y-77822356D01*
X130455716Y-77250730D01*
X130435307Y-77235903D01*
X130435303Y-77235900D01*
X130270664Y-77152014D01*
X130094910Y-77094907D01*
X130081136Y-77092726D01*
X130018002Y-77062796D01*
X129981072Y-77003484D01*
X129982070Y-76933621D01*
X130020681Y-76875389D01*
X130081137Y-76847780D01*
X130095029Y-76845580D01*
X130270852Y-76788452D01*
X130435572Y-76704523D01*
X130585136Y-76595859D01*
X130715859Y-76465136D01*
X130824523Y-76315572D01*
X130908452Y-76150852D01*
X130908484Y-76150753D01*
X130962282Y-75985182D01*
X131001720Y-75927506D01*
X131066078Y-75900308D01*
X131080213Y-75899500D01*
X136262855Y-75899500D01*
X136329894Y-75919185D01*
G37*
%TD.AperFunction*%
%TD*%
M02*
