%TF.GenerationSoftware,KiCad,Pcbnew,9.0.6*%
%TF.CreationDate,2026-07-09T03:30:00+05:30*%
%TF.ProjectId,Pocket_P,506f636b-6574-45f5-902e-6b696361645f,rev?*%
%TF.SameCoordinates,Original*%
%TF.FileFunction,Soldermask,Top*%
%TF.FilePolarity,Negative*%
%FSLAX46Y46*%
G04 Gerber Fmt 4.6, Leading zero omitted, Abs format (unit mm)*
G04 Created by KiCad (PCBNEW 9.0.6) date 2026-07-09 03:30:00*
%MOMM*%
%LPD*%
G01*
G04 APERTURE LIST*
G04 Aperture macros list*
%AMRoundRect*
0 Rectangle with rounded corners*
0 $1 Rounding radius*
0 $2 $3 $4 $5 $6 $7 $8 $9 X,Y pos of 4 corners*
0 Add a 4 corners polygon primitive as box body*
4,1,4,$2,$3,$4,$5,$6,$7,$8,$9,$2,$3,0*
0 Add four circle primitives for the rounded corners*
1,1,$1+$1,$2,$3*
1,1,$1+$1,$4,$5*
1,1,$1+$1,$6,$7*
1,1,$1+$1,$8,$9*
0 Add four rect primitives between the rounded corners*
20,1,$1+$1,$2,$3,$4,$5,0*
20,1,$1+$1,$4,$5,$6,$7,0*
20,1,$1+$1,$6,$7,$8,$9,0*
20,1,$1+$1,$8,$9,$2,$3,0*%
G04 Aperture macros list end*
%ADD10C,2.000000*%
%ADD11C,3.800000*%
%ADD12RoundRect,0.250000X-0.750000X0.600000X-0.750000X-0.600000X0.750000X-0.600000X0.750000X0.600000X0*%
%ADD13O,2.000000X1.700000*%
%ADD14C,1.700000*%
%ADD15O,1.000000X2.000000*%
%ADD16O,2.000000X1.000000*%
%ADD17C,1.552000*%
%ADD18RoundRect,0.102000X-0.654000X-0.654000X0.654000X-0.654000X0.654000X0.654000X-0.654000X0.654000X0*%
%ADD19C,1.512000*%
%ADD20C,2.900000*%
%ADD21C,4.000000*%
%ADD22C,1.650000*%
G04 APERTURE END LIST*
D10*
%TO.C,SW1*%
X137150000Y-113550000D03*
X143650000Y-113550000D03*
X137150000Y-118050000D03*
X143650000Y-118050000D03*
%TD*%
D11*
%TO.C,*%
X185000000Y-76750000D03*
%TD*%
D12*
%TO.C,J2*%
X180467500Y-95950000D03*
D13*
X180467500Y-98450000D03*
%TD*%
D14*
%TO.C,J1*%
X184400000Y-90600000D03*
X184400000Y-80600000D03*
X179400000Y-85600000D03*
D15*
X183900000Y-85600000D03*
D16*
X179400000Y-90600000D03*
X179400000Y-88100000D03*
X179400000Y-83100000D03*
X179400000Y-80600000D03*
%TD*%
D10*
%TO.C,SW2*%
X149950000Y-113750000D03*
X156450000Y-113750000D03*
X149950000Y-118250000D03*
X156450000Y-118250000D03*
%TD*%
D11*
%TO.C,*%
X110500000Y-76750000D03*
%TD*%
D17*
%TO.C,U1*%
X129820000Y-93480000D03*
X129820000Y-90940000D03*
X129820000Y-88400000D03*
X129820000Y-85860000D03*
X129820000Y-80780000D03*
X129820000Y-83320000D03*
X114580000Y-75700000D03*
X129820000Y-75700000D03*
X114580000Y-78240000D03*
X114580000Y-80780000D03*
X114580000Y-83320000D03*
X114580000Y-85860000D03*
X114580000Y-88400000D03*
X114580000Y-90940000D03*
X114580000Y-93480000D03*
X129820000Y-78240000D03*
%TD*%
D11*
%TO.C,*%
X110600000Y-119200000D03*
%TD*%
D18*
%TO.C,U3*%
X114783000Y-100710000D03*
D19*
X114783000Y-103250000D03*
X114783000Y-105790000D03*
X114783000Y-108330000D03*
X114783000Y-110870000D03*
X114783000Y-113410000D03*
X114783000Y-115950000D03*
X114783000Y-118490000D03*
X132817000Y-118490000D03*
X132817000Y-115950000D03*
X132817000Y-113410000D03*
X132817000Y-110870000D03*
X132817000Y-108330000D03*
X132817000Y-105790000D03*
X132817000Y-103250000D03*
X132817000Y-100710000D03*
%TD*%
D10*
%TO.C,SW3*%
X162750000Y-113950000D03*
X169250000Y-113950000D03*
X162750000Y-118450000D03*
X169250000Y-118450000D03*
%TD*%
D11*
%TO.C,REF\u002A\u002A*%
X184600000Y-119000000D03*
%TD*%
D20*
%TO.C,SW4*%
X176052500Y-114200001D03*
X176052500Y-109400000D03*
X176052500Y-104599999D03*
%TD*%
D21*
%TO.C,U2*%
X138362500Y-77600000D03*
X138362500Y-106000000D03*
X168662500Y-77600000D03*
X168662500Y-106000000D03*
D22*
X149702500Y-77600000D03*
X152242500Y-77600000D03*
X154782500Y-77600000D03*
X157322500Y-77600000D03*
%TD*%
M02*
